<svg width="32" height="32" viewBox="0 0 32 32" fill="none" xmlns="http://www.w3.org/2000/svg">
<mask id="mask0_1_1456" style="mask-type:alpha" maskUnits="userSpaceOnUse" x="0" y="0" width="32" height="32">
<rect width="32" height="32" fill="#D9D9D9"/>
</mask>
<g mask="url(#mask0_1_1456)">
<path d="M4.33333 27.4362V9.43624H9.66666V4.10291H22.3333V14.7696H27.6667V27.4362H17.6667V22.1029H14.3333V27.4362H4.33333ZM6.33333 25.4362H9.66666V22.1029H6.33333V25.4362ZM6.33333 20.1029H9.66666V16.7696H6.33333V20.1029ZM6.33333 14.7696H9.66666V11.4362H6.33333V14.7696ZM11.6667 20.1029H15V16.7696H11.6667V20.1029ZM11.6667 14.7696H15V11.4362H11.6667V14.7696ZM11.6667 9.43624H15V6.10291H11.6667V9.43624ZM17 20.1029H20.3333V16.7696H17V20.1029ZM17 14.7696H20.3333V11.4362H17V14.7696ZM17 9.43624H20.3333V6.10291H17V9.43624ZM22.3333 25.4362H25.6667V22.1029H22.3333V25.4362ZM22.3333 20.1029H25.6667V16.7696H22.3333V20.1029Z" fill="#0099FF"/>
</g>
</svg>
