<svg width="72" height="72" viewBox="0 0 72 72" fill="none" xmlns="http://www.w3.org/2000/svg">
<g id="Group 38589">
<rect id="Rectangle 4695" width="72" height="72" rx="6" fill="#ECF6FE"/>
<g id="add_to_home_screen">
<mask id="mask0_1_261" style="mask-type:alpha" maskUnits="userSpaceOnUse" x="18" y="18" width="36" height="36">
<rect id="Bounding box" x="18" y="18" width="36" height="36" fill="#D9D9D9"/>
</mask>
<g mask="url(#mask0_1_261)">
<path id="add_to_home_screen_2" d="M30 52.5C29.175 52.5 28.4688 52.2062 27.8813 51.6188C27.2938 51.0312 27 50.325 27 49.5V43.5H30V45H45V27H30V28.5H27V22.5C27 21.675 27.2938 20.9688 27.8813 20.3813C28.4688 19.7938 29.175 19.5 30 19.5H45C45.825 19.5 46.5312 19.7938 47.1188 20.3813C47.7063 20.9688 48 21.675 48 22.5V49.5C48 50.325 47.7063 51.0312 47.1188 51.6188C46.5312 52.2062 45.825 52.5 45 52.5H30ZM24.6 43.5L22.5 41.4L30.9 33H25.5V30H36V40.5H33V35.1L24.6 43.5Z" fill="#0099FF"/>
</g>
</g>
</g>
</svg>
