<svg width="26" height="34" viewBox="0 0 26 34" fill="none" xmlns="http://www.w3.org/2000/svg">
<path d="M8 33.5C7.175 33.5 6.46875 33.2063 5.88125 32.6188C5.29375 32.0313 5 31.325 5 30.5V24.5H8V26H23V8H8V9.5H5V3.5C5 2.675 5.29375 1.96875 5.88125 1.38125C6.46875 0.79375 7.175 0.5 8 0.5H23C23.825 0.5 24.5313 0.79375 25.1188 1.38125C25.7063 1.96875 26 2.675 26 3.5V30.5C26 31.325 25.7063 32.0313 25.1188 32.6188C24.5313 33.2063 23.825 33.5 23 33.5H8ZM2.6 24.5L0.5 22.4L8.9 14H3.5V11H14V21.5H11V16.1L2.6 24.5Z" fill="#0099FF"/>
</svg>
