<svg width="28" height="28" viewBox="0 0 28 28" fill="none" xmlns="http://www.w3.org/2000/svg">
<path d="M14 12.5C17.75 12.5 20.9375 11.9125 23.5625 10.7375C26.1875 9.5625 27.5 8.15 27.5 6.5C27.5 4.85 26.1875 3.4375 23.5625 2.2625C20.9375 1.0875 17.75 0.5 14 0.5C10.25 0.5 7.0625 1.0875 4.4375 2.2625C1.8125 3.4375 0.5 4.85 0.5 6.5C0.5 8.15 1.8125 9.5625 4.4375 10.7375C7.0625 11.9125 10.25 12.5 14 12.5ZM14 16.25C15.025 16.25 16.3063 16.1438 17.8438 15.9313C19.3812 15.7188 20.8625 15.375 22.2875 14.9C23.7125 14.425 24.9375 13.8063 25.9625 13.0438C26.9875 12.2813 27.5 11.35 27.5 10.25V14C27.5 15.1 26.9875 16.0313 25.9625 16.7938C24.9375 17.5563 23.7125 18.175 22.2875 18.65C20.8625 19.125 19.3812 19.4688 17.8438 19.6813C16.3063 19.8938 15.025 20 14 20C12.975 20 11.6937 19.8938 10.1562 19.6813C8.61875 19.4688 7.1375 19.125 5.7125 18.65C4.2875 18.175 3.0625 17.5563 2.0375 16.7938C1.0125 16.0313 0.5 15.1 0.5 14V10.25C0.5 11.35 1.0125 12.2813 2.0375 13.0438C3.0625 13.8063 4.2875 14.425 5.7125 14.9C7.1375 15.375 8.61875 15.7188 10.1562 15.9313C11.6937 16.1438 12.975 16.25 14 16.25ZM14 23.75C15.025 23.75 16.3063 23.6438 17.8438 23.4313C19.3812 23.2188 20.8625 22.875 22.2875 22.4C23.7125 21.925 24.9375 21.3063 25.9625 20.5438C26.9875 19.7813 27.5 18.85 27.5 17.75V21.5C27.5 22.6 26.9875 23.5313 25.9625 24.2938C24.9375 25.0563 23.7125 25.675 22.2875 26.15C20.8625 26.625 19.3812 26.9688 17.8438 27.1813C16.3063 27.3938 15.025 27.5 14 27.5C12.975 27.5 11.6937 27.3938 10.1562 27.1813C8.61875 26.9688 7.1375 26.625 5.7125 26.15C4.2875 25.675 3.0625 25.0563 2.0375 24.2938C1.0125 23.5313 0.5 22.6 0.5 21.5V17.75C0.5 18.85 1.0125 19.7813 2.0375 20.5438C3.0625 21.3063 4.2875 21.925 5.7125 22.4C7.1375 22.875 8.61875 23.2188 10.1562 23.4313C11.6937 23.6438 12.975 23.75 14 23.75Z" fill="#0099FF"/>
</svg>
