<svg width="72" height="72" viewBox="0 0 72 72" fill="none" xmlns="http://www.w3.org/2000/svg">
<g id="Group 38590">
<rect id="Rectangle 4695" width="72" height="72" rx="6" fill="#ECF6FE"/>
<g id="database">
<mask id="mask0_1_271" style="mask-type:alpha" maskUnits="userSpaceOnUse" x="18" y="18" width="36" height="36">
<rect id="Bounding box" x="18" y="18" width="36" height="36" fill="#D9D9D9"/>
</mask>
<g mask="url(#mask0_1_271)">
<path id="database_2" d="M36 34.5C39.75 34.5 42.9375 33.9125 45.5625 32.7375C48.1875 31.5625 49.5 30.15 49.5 28.5C49.5 26.85 48.1875 25.4375 45.5625 24.2625C42.9375 23.0875 39.75 22.5 36 22.5C32.25 22.5 29.0625 23.0875 26.4375 24.2625C23.8125 25.4375 22.5 26.85 22.5 28.5C22.5 30.15 23.8125 31.5625 26.4375 32.7375C29.0625 33.9125 32.25 34.5 36 34.5ZM36 38.25C37.025 38.25 38.3062 38.1438 39.8438 37.9313C41.3813 37.7188 42.8625 37.375 44.2875 36.9C45.7125 36.425 46.9375 35.8063 47.9625 35.0438C48.9875 34.2812 49.5 33.35 49.5 32.25V36C49.5 37.1 48.9875 38.0312 47.9625 38.7938C46.9375 39.5562 45.7125 40.175 44.2875 40.65C42.8625 41.125 41.3813 41.4688 39.8438 41.6813C38.3062 41.8938 37.025 42 36 42C34.975 42 33.6938 41.8938 32.1562 41.6813C30.6187 41.4688 29.1375 41.125 27.7125 40.65C26.2875 40.175 25.0625 39.5562 24.0375 38.7938C23.0125 38.0312 22.5 37.1 22.5 36V32.25C22.5 33.35 23.0125 34.2812 24.0375 35.0438C25.0625 35.8063 26.2875 36.425 27.7125 36.9C29.1375 37.375 30.6187 37.7188 32.1562 37.9313C33.6938 38.1438 34.975 38.25 36 38.25ZM36 45.75C37.025 45.75 38.3062 45.6438 39.8438 45.4313C41.3813 45.2188 42.8625 44.875 44.2875 44.4C45.7125 43.925 46.9375 43.3062 47.9625 42.5438C48.9875 41.7812 49.5 40.85 49.5 39.75V43.5C49.5 44.6 48.9875 45.5312 47.9625 46.2938C46.9375 47.0562 45.7125 47.675 44.2875 48.15C42.8625 48.625 41.3813 48.9688 39.8438 49.1813C38.3062 49.3938 37.025 49.5 36 49.5C34.975 49.5 33.6938 49.3938 32.1562 49.1813C30.6187 48.9688 29.1375 48.625 27.7125 48.15C26.2875 47.675 25.0625 47.0562 24.0375 46.2938C23.0125 45.5312 22.5 44.6 22.5 43.5V39.75C22.5 40.85 23.0125 41.7812 24.0375 42.5438C25.0625 43.3062 26.2875 43.925 27.7125 44.4C29.1375 44.875 30.6187 45.2188 32.1562 45.4313C33.6938 45.6438 34.975 45.75 36 45.75Z" fill="#0099FF"/>
</g>
</g>
</g>
</svg>
