<svg width="165" height="180" viewBox="0 0 165 180" fill="none" xmlns="http://www.w3.org/2000/svg">
<path d="M39.2619 19.807C71.588 25.506 90.8544 37.427 97.5 44.2709C104.146 37.427 123.412 25.506 155.738 19.807C172.115 16.9199 180.303 15.4764 187.276 21.0093C194.25 26.5423 194.25 35.527 194.25 53.4965V118.076C194.25 134.506 194.25 142.721 189.774 147.851C185.299 152.98 175.445 154.717 155.738 158.191C138.171 161.288 124.46 166.223 114.536 171.182C104.772 176.06 99.8897 178.5 97.5 178.5C95.1103 178.5 90.2281 176.06 80.4641 171.182C70.5401 166.223 56.8295 161.288 39.2619 158.191C19.5548 154.717 9.70127 152.98 5.22563 147.851C0.75 142.721 0.75 134.506 0.75 118.076V53.4965C0.75 35.527 0.75 26.5423 7.72358 21.0093C14.6972 15.4764 22.8854 16.9199 39.2619 19.807Z" stroke="#9BC3FF" stroke-width="1.5" stroke-linecap="round" stroke-linejoin="round"/>
<path d="M97.5 38.75L97.5 178.5" stroke="#9BC3FF" stroke-width="1.5" stroke-linejoin="round"/>
<path d="M59.875 -25.1203C70.7471 -32.3293 83.621 -36.5 97.4205 -36.5C111.287 -36.5 124.219 -32.2885 135.125 -25.0146M114.938 1.125C109.777 -1.98982 103.797 -3.77066 97.4205 -3.77066C91.1124 -3.77066 85.1911 -2.02759 80.0678 1.02585" stroke="#9BC3FF" stroke-width="1.5" stroke-linecap="round"/>
</svg>
