<svg width="48" height="48" viewBox="0 0 48 48" fill="none" xmlns="http://www.w3.org/2000/svg">
<path d="M30 26V28C30 33.6569 30 36.4853 31.7574 38.2426C33.5147 40 36.3431 40 42 40" stroke="url(#paint0_linear_1_2903)" stroke-width="1.5" stroke-linejoin="round"/>
<path d="M41.3828 36L41.3828 44" stroke="url(#paint1_linear_1_2903)" stroke-width="1.5" stroke-linecap="round" stroke-linejoin="round"/>
<path d="M18 21.6583L16.9256 21.7778C15.3183 21.9565 14.5146 22.0459 13.8744 21.9765C10.7496 21.6377 8.28661 18.8687 8.01632 15.3905C7.96094 14.6779 8.05014 13.7853 8.22853 12" stroke="url(#paint2_linear_1_2903)" stroke-width="1.5" stroke-linejoin="round"/>
<path d="M27.3828 14H27.4008" stroke="url(#paint3_linear_1_2903)" stroke-width="2" stroke-linecap="round" stroke-linejoin="round"/>
<path d="M34 14L43 14" stroke="url(#paint4_linear_1_2903)" stroke-width="1.5" stroke-linecap="round" stroke-linejoin="round"/>
<path d="M4.492 8.4483C4.04796 6.65463 3.82595 5.7578 4.16363 5.0902C4.27849 4.86314 4.43527 4.66035 4.62555 4.49275C5.18498 4 6.10039 4 7.9312 4H33.1075C39.1232 4 44 8.92487 44 15C44 21.0751 39.1232 26 33.1075 26H23.6103C21.9785 26 21.1626 26 20.4618 25.7206C19.9213 25.5051 19.4344 25.1722 19.0356 24.7455C18.5184 24.1921 18.2154 23.4271 17.6093 21.8971L16.5345 19.1833C15.9129 17.614 15.6021 16.8294 15.0272 16.2488C14.4523 15.6683 13.6753 15.3544 12.1213 14.7267L8.7372 13.3597C7.2837 12.7725 6.55695 12.479 6.01148 11.9618C5.82026 11.7804 5.64734 11.5804 5.49528 11.3645C5.06152 10.7489 4.87168 9.98201 4.492 8.4483Z" stroke="url(#paint5_linear_1_2903)" stroke-width="1.5" stroke-linejoin="round"/>
<defs>
<linearGradient id="paint0_linear_1_2903" x1="42" y1="40" x2="28.1647" y2="28.1412" gradientUnits="userSpaceOnUse">
<stop stop-color="white"/>
<stop offset="1" stop-color="#064199"/>
</linearGradient>
<linearGradient id="paint1_linear_1_2903" x1="42.3828" y1="44" x2="40.4136" y2="43.7538" gradientUnits="userSpaceOnUse">
<stop stop-color="white"/>
<stop offset="1" stop-color="#064199"/>
</linearGradient>
<linearGradient id="paint2_linear_1_2903" x1="18" y1="22" x2="8" y2="12" gradientUnits="userSpaceOnUse">
<stop stop-color="white"/>
<stop offset="1" stop-color="#064199"/>
</linearGradient>
<linearGradient id="paint3_linear_1_2903" x1="27.4008" y1="16" x2="27.3649" y2="15.9997" gradientUnits="userSpaceOnUse">
<stop stop-color="white"/>
<stop offset="1" stop-color="#064199"/>
</linearGradient>
<linearGradient id="paint4_linear_1_2903" x1="43" y1="14" x2="43" y2="14" gradientUnits="userSpaceOnUse">
<stop stop-color="white"/>
<stop offset="1" stop-color="#064199"/>
</linearGradient>
<linearGradient id="paint5_linear_1_2903" x1="44" y1="26.0001" x2="25.4202" y2="-7.78117" gradientUnits="userSpaceOnUse">
<stop stop-color="white"/>
<stop offset="1" stop-color="#064199"/>
</linearGradient>
</defs>
</svg>
