<svg width="48" height="48" viewBox="0 0 48 48" fill="none" xmlns="http://www.w3.org/2000/svg">
<path d="M24 22L24 40" stroke="url(#paint0_linear_1_2927)" stroke-width="1.5" stroke-linecap="round"/>
<path d="M28 18C28 20.2091 26.2091 22 24 22C21.7909 22 20 20.2091 20 18C20 15.7909 21.7909 14 24 14C26.2091 14 28 15.7909 28 18Z" fill="url(#paint1_linear_1_2927)"/>
<path d="M28 18C28 20.2091 26.2091 22 24 22C21.7909 22 20 20.2091 20 18C20 15.7909 21.7909 14 24 14C26.2091 14 28 15.7909 28 18Z" stroke="url(#paint2_linear_1_2927)" stroke-width="1.5"/>
<path d="M33.9177 12C35.2371 13.7392 36 15.796 36 18C36 20.204 35.2371 22.2608 33.9177 24M14.0823 12C12.7629 13.7392 12 15.796 12 18C12 20.204 12.7629 22.2608 14.0823 24" stroke="url(#paint3_linear_1_2927)" stroke-width="1.5" stroke-linecap="round" stroke-linejoin="round"/>
<path d="M40.6318 8C42.7593 10.8602 44 14.2997 44 18C44 21.7003 42.7593 25.1398 40.6318 28M7.36817 8C5.24071 10.8602 4 14.2997 4 18C4 21.7003 5.24071 25.1398 7.36817 28" stroke="url(#paint4_linear_1_2927)" stroke-width="1.5" stroke-linecap="round" stroke-linejoin="round"/>
<defs>
<linearGradient id="paint0_linear_1_2927" x1="24" y1="40" x2="25.9938" y2="39.8892" gradientUnits="userSpaceOnUse">
<stop stop-color="white"/>
<stop offset="1" stop-color="#064199"/>
</linearGradient>
<linearGradient id="paint1_linear_1_2927" x1="20" y1="22" x2="28" y2="14" gradientUnits="userSpaceOnUse">
<stop stop-color="white"/>
<stop offset="1" stop-color="#064199"/>
</linearGradient>
<linearGradient id="paint2_linear_1_2927" x1="20" y1="22" x2="28" y2="14" gradientUnits="userSpaceOnUse">
<stop stop-color="white"/>
<stop offset="1" stop-color="#064199"/>
</linearGradient>
<linearGradient id="paint3_linear_1_2927" x1="12" y1="24" x2="21.6" y2="4.8" gradientUnits="userSpaceOnUse">
<stop stop-color="white"/>
<stop offset="1" stop-color="#064199"/>
</linearGradient>
<linearGradient id="paint4_linear_1_2927" x1="4" y1="28" x2="20" y2="-4" gradientUnits="userSpaceOnUse">
<stop stop-color="white"/>
<stop offset="1" stop-color="#064199"/>
</linearGradient>
</defs>
</svg>
