<svg width="32" height="24" viewBox="0 0 32 24" fill="none" xmlns="http://www.w3.org/2000/svg">
<path d="M8.75 24C6.475 24 4.53125 23.2125 2.91875 21.6375C1.30625 20.0625 0.5 18.1375 0.5 15.8625C0.5 13.9125 1.0875 12.175 2.2625 10.65C3.4375 9.125 4.975 8.15 6.875 7.725C7.5 5.425 8.75 3.5625 10.625 2.1375C12.5 0.7125 14.625 0 17 0C19.65 0 21.9563 0.85625 23.9188 2.56875C25.8813 4.28125 27.0375 6.425 27.3875 9C25.3375 9.05 23.5938 9.79375 22.1562 11.2313C20.7188 12.6687 20 14.425 20 16.5V24H8.75ZM24.5 24C24.075 24 23.7188 23.8563 23.4313 23.5688C23.1438 23.2812 23 22.925 23 22.5V18C23 17.575 23.1438 17.2188 23.4313 16.9313C23.7188 16.6438 24.075 16.5 24.5 16.5V15C24.5 14.175 24.7937 13.4688 25.3812 12.8813C25.9688 12.2938 26.675 12 27.5 12C28.325 12 29.0312 12.2938 29.6188 12.8813C30.2063 13.4688 30.5 14.175 30.5 15V16.5C30.925 16.5 31.2812 16.6438 31.5687 16.9313C31.8562 17.2188 32 17.575 32 18V22.5C32 22.925 31.8562 23.2812 31.5687 23.5688C31.2812 23.8563 30.925 24 30.5 24H24.5ZM26 16.5H29V15C29 14.575 28.8562 14.2188 28.5687 13.9313C28.2812 13.6438 27.925 13.5 27.5 13.5C27.075 13.5 26.7188 13.6438 26.4313 13.9313C26.1438 14.2188 26 14.575 26 15V16.5Z" fill="#253DAB"/>
</svg>
