<svg width="48" height="48" viewBox="0 0 48 48" fill="none" xmlns="http://www.w3.org/2000/svg">
<path opacity="0.4" d="M39.4697 7.46967C39.1768 7.76256 39.1768 8.23744 39.4697 8.53033C39.7626 8.82322 40.2374 8.82322 40.5303 8.53033L40 8L39.4697 7.46967ZM44.5303 4.53033C44.8232 4.23744 44.8232 3.76256 44.5303 3.46967C44.2374 3.17678 43.7626 3.17678 43.4697 3.46967L44 4L44.5303 4.53033ZM44 4L43.4697 3.46967L39.4697 7.46967L40 8L40.5303 8.53033L44.5303 4.53033L44 4Z" fill="url(#paint0_linear_1_2390)"/>
<path d="M38.9934 23.5238L38.4631 22.9934V22.9934L38.9934 23.5238ZM33.1865 24.9755L33.7169 24.4452L33.1865 24.9755ZM37.5417 24.9755L38.072 25.5058V25.5058L37.5417 24.9755ZM23.0245 10.4583L22.4942 9.92799H22.4942L23.0245 10.4583ZM23.0245 14.8135L22.4942 15.3438L23.0245 14.8135ZM24.4762 9.0066L25.0066 9.53693H25.0066L24.4762 9.0066ZM24.4762 9.0066L23.9459 8.47627L22.4942 9.92799L23.0245 10.4583L23.5548 10.9887L25.0066 9.53693L24.4762 9.0066ZM23.0245 14.8135L22.4942 15.3438L32.6562 25.5058L33.1865 24.9755L33.7169 24.4452L23.5548 14.2831L23.0245 14.8135ZM37.5417 24.9755L38.072 25.5058L39.5237 24.0541L38.9934 23.5238L38.4631 22.9934L37.0113 24.4452L37.5417 24.9755ZM38.9934 23.5238L39.5237 24.0541C43.8254 19.7524 43.8254 12.778 39.5237 8.47627L38.9934 9.0066L38.4631 9.53693C42.179 13.2528 42.179 19.2775 38.4631 22.9934L38.9934 23.5238ZM24.4762 9.0066L25.0066 9.53693C28.7225 5.82102 34.7472 5.82102 38.4631 9.53693L38.9934 9.0066L39.5237 8.47627C35.222 4.17458 28.2476 4.17458 23.9459 8.47627L24.4762 9.0066ZM23.0245 14.8135L23.5548 14.2831C22.9946 13.7229 22.7574 13.1629 22.7502 12.6572C22.743 12.1565 22.9594 11.5841 23.5548 10.9887L23.0245 10.4583L22.4942 9.92799C21.6812 10.741 21.2361 11.6847 21.2503 12.6787C21.2645 13.6677 21.7315 14.5811 22.4942 15.3438L23.0245 14.8135ZM37.5417 24.9755L37.0113 24.4452C36.4511 25.0054 35.8911 25.2426 35.3855 25.2498C34.8848 25.257 34.3123 25.0406 33.7169 24.4452L33.1865 24.9755L32.6562 25.5058C33.4692 26.3188 34.4129 26.7639 35.4069 26.7497C36.396 26.7355 37.3093 26.2685 38.072 25.5058L37.5417 24.9755Z" fill="url(#paint1_linear_1_2390)"/>
<path opacity="0.4" d="M8.53033 40.5303C8.82322 40.2374 8.82322 39.7626 8.53033 39.4697C8.23744 39.1768 7.76256 39.1768 7.46967 39.4697L8 40L8.53033 40.5303ZM3.46967 43.4697C3.17678 43.7626 3.17678 44.2374 3.46967 44.5303C3.76256 44.8232 4.23744 44.8232 4.53033 44.5303L4 44L3.46967 43.4697ZM8 40L7.46967 39.4697L3.46967 43.4697L4 44L4.53033 44.5303L8.53033 40.5303L8 40Z" fill="url(#paint2_linear_1_2390)"/>
<path d="M24.9755 33.1865L24.4452 33.7169L24.9755 33.1865ZM10.4583 23.0245L9.92799 22.4942L9.92799 22.4942L10.4583 23.0245ZM14.8135 23.0245L15.3438 22.4942L14.8135 23.0245ZM9.0066 24.4762L9.53693 25.0066H9.53693L9.0066 24.4762ZM9.0066 24.4762L9.53693 25.0066L10.9887 23.5548L10.4583 23.0245L9.92799 22.4942L8.47627 23.9459L9.0066 24.4762ZM14.8135 23.0245L14.2831 23.5548L24.4452 33.7169L24.9755 33.1865L25.5058 32.6562L15.3438 22.4942L14.8135 23.0245ZM24.9755 37.5417L24.4452 37.0113L22.9934 38.4631L23.5238 38.9934L24.0541 39.5237L25.5058 38.072L24.9755 37.5417ZM23.5238 38.9934L22.9934 38.4631C19.2775 42.179 13.2528 42.179 9.53693 38.4631L9.0066 38.9934L8.47627 39.5237C12.778 43.8254 19.7524 43.8254 24.0541 39.5237L23.5238 38.9934ZM9.0066 24.4762L8.47627 23.9459C4.17458 28.2476 4.17458 35.222 8.47627 39.5237L9.0066 38.9934L9.53693 38.4631C5.82102 34.7472 5.82102 28.7225 9.53693 25.0066L9.0066 24.4762ZM14.8135 23.0245L15.3438 22.4942C14.5811 21.7315 13.6677 21.2645 12.6787 21.2503C11.6847 21.2361 10.741 21.6812 9.92799 22.4942L10.4583 23.0245L10.9887 23.5548C11.5841 22.9594 12.1565 22.743 12.6572 22.7502C13.1629 22.7574 13.7229 22.9946 14.2831 23.5548L14.8135 23.0245ZM24.9755 37.5417L25.5058 38.072C26.2685 37.3093 26.7355 36.3959 26.7497 35.4069C26.7639 34.4129 26.3188 33.4692 25.5058 32.6562L24.9755 33.1865L24.4452 33.7169C25.0406 34.3123 25.257 34.8848 25.2498 35.3855C25.2426 35.8911 25.0054 36.4511 24.4452 37.0113L24.9755 37.5417Z" fill="url(#paint3_linear_1_2390)"/>
<path opacity="0.4" d="M20.4697 18.4697C20.1768 18.7626 20.1768 19.2374 20.4697 19.5303C20.7626 19.8232 21.2374 19.8232 21.5303 19.5303L21 19L20.4697 18.4697ZM24.5303 16.5303C24.8232 16.2374 24.8232 15.7626 24.5303 15.4697C24.2374 15.1768 23.7626 15.1768 23.4697 15.4697L24 16L24.5303 16.5303ZM28.4697 26.4697C28.1768 26.7626 28.1768 27.2374 28.4697 27.5303C28.7626 27.8232 29.2374 27.8232 29.5303 27.5303L29 27L28.4697 26.4697ZM32.5303 24.5303C32.8232 24.2374 32.8232 23.7626 32.5303 23.4697C32.2374 23.1768 31.7626 23.1768 31.4697 23.4697L32 24L32.5303 24.5303ZM21 19L21.5303 19.5303L24.5303 16.5303L24 16L23.4697 15.4697L20.4697 18.4697L21 19ZM29 27L29.5303 27.5303L32.5303 24.5303L32 24L31.4697 23.4697L28.4697 26.4697L29 27Z" fill="url(#paint4_linear_1_2390)"/>
<defs>
<linearGradient id="paint0_linear_1_2390" x1="44" y1="8" x2="40" y2="4" gradientUnits="userSpaceOnUse">
<stop stop-color="white"/>
<stop offset="1" stop-color="#064199"/>
</linearGradient>
<linearGradient id="paint1_linear_1_2390" x1="42" y1="26" x2="22" y2="6" gradientUnits="userSpaceOnUse">
<stop stop-color="white"/>
<stop offset="1" stop-color="#064199"/>
</linearGradient>
<linearGradient id="paint2_linear_1_2390" x1="4" y1="44" x2="8" y2="40" gradientUnits="userSpaceOnUse">
<stop stop-color="white"/>
<stop offset="1" stop-color="#064199"/>
</linearGradient>
<linearGradient id="paint3_linear_1_2390" x1="6" y1="42" x2="26" y2="22" gradientUnits="userSpaceOnUse">
<stop stop-color="white"/>
<stop offset="1" stop-color="#064199"/>
</linearGradient>
<linearGradient id="paint4_linear_1_2390" x1="21" y1="27" x2="32" y2="16" gradientUnits="userSpaceOnUse">
<stop stop-color="white"/>
<stop offset="1" stop-color="#064199"/>
</linearGradient>
</defs>
</svg>
