<svg width="48" height="48" viewBox="0 0 48 48" fill="none" xmlns="http://www.w3.org/2000/svg">
<path d="M27 26L34 18M28 30C28 32.2091 26.2091 34 24 34C21.7909 34 20 32.2091 20 30C20 27.7909 21.7909 26 24 26C26.2091 26 28 27.7909 28 30Z" stroke="url(#paint0_linear_1_3960)" stroke-width="1.5" stroke-linecap="round"/>
<path d="M12 24C12 17.3726 17.3726 12 24 12C26.1857 12 28.235 12.5844 30 13.6054" stroke="url(#paint1_linear_1_3960)" stroke-width="1.5" stroke-linecap="round"/>
<path d="M5 24C5 15.0433 5 10.565 7.78249 7.78249C10.565 5 15.0433 5 24 5C32.9567 5 37.435 5 40.2175 7.78249C43 10.565 43 15.0433 43 24C43 32.9567 43 37.435 40.2175 40.2175C37.435 43 32.9567 43 24 43C15.0433 43 10.565 43 7.78249 40.2175C5 37.435 5 32.9567 5 24Z" stroke="url(#paint2_linear_1_3960)" stroke-width="1.5"/>
<defs>
<linearGradient id="paint0_linear_1_3960" x1="34" y1="34" x2="18.1416" y2="20.1239" gradientUnits="userSpaceOnUse">
<stop stop-color="white"/>
<stop offset="1" stop-color="#064199"/>
</linearGradient>
<linearGradient id="paint1_linear_1_3960" x1="30" y1="24" x2="18.9231" y2="7.38462" gradientUnits="userSpaceOnUse">
<stop stop-color="white"/>
<stop offset="1" stop-color="#064199"/>
</linearGradient>
<linearGradient id="paint2_linear_1_3960" x1="43" y1="43" x2="5" y2="5" gradientUnits="userSpaceOnUse">
<stop stop-color="white"/>
<stop offset="1" stop-color="#064199"/>
</linearGradient>
</defs>
</svg>
