<svg width="48" height="48" viewBox="0 0 48 48" fill="none" xmlns="http://www.w3.org/2000/svg">
<path d="M5 24C5 15.0433 5 10.565 7.78249 7.78249C10.565 5 15.0433 5 24 5C32.9567 5 37.435 5 40.2175 7.78249C43 10.565 43 15.0433 43 24C43 32.9567 43 37.435 40.2175 40.2175C37.435 43 32.9567 43 24 43C15.0433 43 10.565 43 7.78249 40.2175C5 37.435 5 32.9567 5 24Z" stroke="url(#paint0_linear_1_3954)" stroke-width="1.5"/>
<path d="M5 18H43" stroke="url(#paint1_linear_1_3954)" stroke-width="1.5" stroke-linejoin="round"/>
<path d="M13.9996 12H14.0176" stroke="url(#paint2_linear_1_3954)" stroke-width="2" stroke-linecap="round" stroke-linejoin="round"/>
<path d="M21.9996 12H22.0176" stroke="url(#paint3_linear_1_3954)" stroke-width="2" stroke-linecap="round" stroke-linejoin="round"/>
<path d="M34 34C34 28.4772 29.5228 24 24 24C18.4772 24 14 28.4772 14 34" stroke="url(#paint4_linear_1_3954)" stroke-width="1.5" stroke-linecap="round"/>
<path d="M25.4141 30.5859L22.5856 33.4144" stroke="url(#paint5_linear_1_3954)" stroke-width="1.5" stroke-linecap="round" stroke-linejoin="round"/>
<defs>
<linearGradient id="paint0_linear_1_3954" x1="43" y1="43" x2="5" y2="5" gradientUnits="userSpaceOnUse">
<stop stop-color="white"/>
<stop offset="1" stop-color="#064199"/>
</linearGradient>
<linearGradient id="paint1_linear_1_3954" x1="43" y1="19" x2="42.9474" y2="17.0014" gradientUnits="userSpaceOnUse">
<stop stop-color="white"/>
<stop offset="1" stop-color="#064199"/>
</linearGradient>
<linearGradient id="paint2_linear_1_3954" x1="14.018" y1="14" x2="13.982" y2="13.9997" gradientUnits="userSpaceOnUse">
<stop stop-color="white"/>
<stop offset="1" stop-color="#064199"/>
</linearGradient>
<linearGradient id="paint3_linear_1_3954" x1="22.018" y1="14" x2="21.982" y2="13.9997" gradientUnits="userSpaceOnUse">
<stop stop-color="white"/>
<stop offset="1" stop-color="#064199"/>
</linearGradient>
<linearGradient id="paint4_linear_1_3954" x1="34" y1="34" x2="26" y2="18" gradientUnits="userSpaceOnUse">
<stop stop-color="white"/>
<stop offset="1" stop-color="#064199"/>
</linearGradient>
<linearGradient id="paint5_linear_1_3954" x1="23.2927" y1="34.1215" x2="22.2945" y2="32.4577" gradientUnits="userSpaceOnUse">
<stop stop-color="white"/>
<stop offset="1" stop-color="#064199"/>
</linearGradient>
</defs>
</svg>
