<svg width="32" height="32" viewBox="0 0 32 32" fill="none" xmlns="http://www.w3.org/2000/svg">
<mask id="mask0_1_1422" style="mask-type:alpha" maskUnits="userSpaceOnUse" x="0" y="0" width="32" height="32">
<rect width="32" height="32" fill="#D9D9D9"/>
</mask>
<g mask="url(#mask0_1_1422)">
<path d="M9.66591 26C8.6488 26 7.78346 25.6431 7.06991 24.9293C6.35613 24.2158 5.99924 23.3504 5.99924 22.3333H2.84557L3.29157 20.3333H6.68657C6.99591 19.8256 7.41257 19.4209 7.93657 19.1193C8.46035 18.8176 9.0368 18.6667 9.66591 18.6667C10.295 18.6667 10.8716 18.8176 11.3956 19.1193C11.9194 19.4209 12.336 19.8256 12.6456 20.3333H18.5069L21.3712 8H6.77124L6.85324 7.65133C6.95235 7.16578 7.18946 6.76922 7.56457 6.46167C7.93991 6.15389 8.38135 6 8.88891 6H23.8709L22.7146 11H26.0506L29.8582 16.077L28.6146 22.3333H26.5119C26.5119 23.3504 26.1551 24.2158 25.4416 24.9293C24.7278 25.6431 23.8625 26 22.8456 26C21.8285 26 20.963 25.6431 20.2492 24.9293C19.5357 24.2158 19.1789 23.3504 19.1789 22.3333H13.3326C13.3326 23.3504 12.9757 24.2158 12.2619 24.9293C11.5484 25.6431 10.683 26 9.66591 26ZM21.2069 17.5H27.5249L27.7096 16.5563L25.0506 13H22.2556L21.2069 17.5ZM21.1762 8.78467L21.3712 8L18.5069 20.3333L18.7019 19.5487L21.1762 8.78467ZM1.44791 17.5487L1.94791 15.5487H8.60191L8.10191 17.5487H1.44791ZM4.11457 12.7847L4.61457 10.7847H12.6019L12.1019 12.7847H4.11457ZM9.66591 24C10.1292 24 10.5228 23.838 10.8466 23.514C11.1706 23.1902 11.3326 22.7967 11.3326 22.3333C11.3326 21.87 11.1706 21.4764 10.8466 21.1527C10.5228 20.8287 10.1292 20.6667 9.66591 20.6667C9.20257 20.6667 8.80902 20.8287 8.48524 21.1527C8.16124 21.4764 7.99924 21.87 7.99924 22.3333C7.99924 22.7967 8.16124 23.1902 8.48524 23.514C8.80902 23.838 9.20257 24 9.66591 24ZM22.8456 24C23.3087 24 23.7022 23.838 24.0262 23.514C24.3502 23.1902 24.5122 22.7967 24.5122 22.3333C24.5122 21.87 24.3502 21.4764 24.0262 21.1527C23.7022 20.8287 23.3087 20.6667 22.8456 20.6667C22.3822 20.6667 21.9886 20.8287 21.6646 21.1527C21.3406 21.4764 21.1786 21.87 21.1786 22.3333C21.1786 22.7967 21.3406 23.1902 21.6646 23.514C21.9886 23.838 22.3822 24 22.8456 24Z" fill="#0099FF"/>
</g>
</svg>
