<svg width="20" height="21" viewBox="0 0 20 21" fill="none" xmlns="http://www.w3.org/2000/svg">
<g id="pace">
<mask id="mask0_1_1700" style="mask-type:alpha" maskUnits="userSpaceOnUse" x="0" y="0" width="20" height="21">
<rect id="Bounding box" y="0.5" width="20" height="20" fill="#D9D9D9"/>
</mask>
<g mask="url(#mask0_1_1700)">
<path id="pace_2" d="M9.99996 18.8334C8.84718 18.8334 7.76385 18.6147 6.74996 18.1772C5.73607 17.7397 4.85413 17.1459 4.10413 16.3959C3.35413 15.6459 2.76038 14.764 2.32288 13.7501C1.88538 12.7362 1.66663 11.6529 1.66663 10.5001C1.66663 9.3473 1.88538 8.26397 2.32288 7.25008C2.76038 6.23619 3.35413 5.35425 4.10413 4.60425C4.85413 3.85425 5.73607 3.2605 6.74996 2.823C7.76385 2.3855 8.84718 2.16675 9.99996 2.16675C11.1527 2.16675 12.2361 2.3855 13.25 2.823C14.2638 3.2605 15.1458 3.85425 15.8958 4.60425C16.6458 5.35425 17.2395 6.23619 17.677 7.25008C18.1145 8.26397 18.3333 9.3473 18.3333 10.5001C18.3333 10.8751 18.3125 11.2431 18.2708 11.6042C18.2291 11.9654 18.1597 12.3195 18.0625 12.6667C17.868 12.4445 17.6423 12.257 17.3854 12.1042C17.1284 11.9515 16.8472 11.8473 16.5416 11.7917C16.5833 11.5834 16.6145 11.3716 16.6354 11.1563C16.6562 10.9411 16.6666 10.7223 16.6666 10.5001C16.6666 8.63897 16.0208 7.06258 14.7291 5.77091C13.4375 4.47925 11.8611 3.83341 9.99996 3.83341C8.13885 3.83341 6.56246 4.47925 5.27079 5.77091C3.97913 7.06258 3.33329 8.63897 3.33329 10.5001C3.33329 12.3612 3.97913 13.9376 5.27079 15.2292C6.56246 16.5209 8.13885 17.1667 9.99996 17.1667C10.7083 17.1667 11.3854 17.0626 12.0312 16.8542C12.677 16.6459 13.2708 16.3542 13.8125 15.9792C13.9791 16.2154 14.184 16.4237 14.427 16.6042C14.6701 16.7848 14.9305 16.9237 15.2083 17.0209C14.5 17.5904 13.7048 18.0348 12.8229 18.3542C11.9409 18.6737 11 18.8334 9.99996 18.8334ZM16.0416 15.5001C15.75 15.5001 15.5034 15.3994 15.302 15.198C15.1007 14.9966 15 14.7501 15 14.4584C15 14.1667 15.1007 13.9202 15.302 13.7188C15.5034 13.5174 15.75 13.4167 16.0416 13.4167C16.3333 13.4167 16.5798 13.5174 16.7812 13.7188C16.9826 13.9202 17.0833 14.1667 17.0833 14.4584C17.0833 14.7501 16.9826 14.9966 16.7812 15.198C16.5798 15.3994 16.3333 15.5001 16.0416 15.5001ZM12.75 14.4167L9.16663 10.8334V6.33341H10.8333V10.1667L13.9166 13.2501L12.75 14.4167Z" fill="#FFC178"/>
</g>
</g>
</svg>
