<svg width="36" height="36" viewBox="0 0 36 36" fill="none" xmlns="http://www.w3.org/2000/svg">
<g id="Frame 37955">
<rect width="36" height="36" rx="6" fill="#61BDFB" fill-opacity="0.23"/>
<g id="hourglass">
<mask id="mask0_1_2380" style="mask-type:alpha" maskUnits="userSpaceOnUse" x="6" y="6" width="24" height="24">
<rect id="Bounding box" x="6" y="6" width="24" height="24" fill="#D9D9D9"/>
</mask>
<g mask="url(#mask0_1_2380)">
<path id="hourglass_2" d="M14 26H22V23C22 21.9 21.6083 20.9583 20.825 20.175C20.0417 19.3917 19.1 19 18 19C16.9 19 15.9583 19.3917 15.175 20.175C14.3917 20.9583 14 21.9 14 23V26ZM18 17C19.1 17 20.0417 16.6083 20.825 15.825C21.6083 15.0417 22 14.1 22 13V10H14V13C14 14.1 14.3917 15.0417 15.175 15.825C15.9583 16.6083 16.9 17 18 17ZM10 28V26H12V23C12 21.9833 12.2375 21.0292 12.7125 20.1375C13.1875 19.2458 13.85 18.5333 14.7 18C13.85 17.4667 13.1875 16.7542 12.7125 15.8625C12.2375 14.9708 12 14.0167 12 13V10H10V8H26V10H24V13C24 14.0167 23.7625 14.9708 23.2875 15.8625C22.8125 16.7542 22.15 17.4667 21.3 18C22.15 18.5333 22.8125 19.2458 23.2875 20.1375C23.7625 21.0292 24 21.9833 24 23V26H26V28H10Z" fill="#0099FF"/>
</g>
</g>
</g>
</svg>
