<!DOCTYPE svg PUBLIC "-//W3C//DTD SVG 1.1//EN" "http://www.w3.org/Graphics/SVG/1.1/DTD/svg11.dtd">
<!-- Uploaded to: SVG Repo, www.svgrepo.com, Transformed by: SVG Repo Mixer Tools -->
<svg fill="#0099FF" height="800px" width="800px" version="1.1" id="Capa_1" xmlns="http://www.w3.org/2000/svg" xmlns:xlink="http://www.w3.org/1999/xlink" viewBox="0 0 480.554 480.554" xml:space="preserve">
<g id="SVGRepo_bgCarrier" stroke-width="0"/>
<g id="SVGRepo_tracerCarrier" stroke-linecap="round" stroke-linejoin="round"/>
<g id="SVGRepo_iconCarrier"> <g> <path d="M391.452,237.064c0,0,89.102-35.522,89.102-122.595c0-11.716-2.266-22.902-6.376-33.149l-83.794-27.727L308.726,81.32 c-4.11,10.247-6.376,21.434-6.376,33.149C302.35,203.571,391.452,237.064,391.452,237.064z M391.286,71.128l70.078,23.188 c1.879,6.516,2.826,13.268,2.826,20.154c0,30.915-12.887,58.183-38.305,81.047c-13.402,12.056-27.047,19.795-34.589,23.588 c-0.003-0.002-0.007-0.004-0.011-0.006V71.128z"/> <path d="M421.683,382.179c0,2.356-0.662,4.506-1.641,6.488L314.513,283.129l38.291-38.29c-6.998-4.521-14.664-10.1-22.375-16.853 c-0.533-0.467-1.05-0.942-1.574-1.413l-98.479,98.48c-2.463,2.463-6.749,2.463-9.214,0L57.337,161.222h227.518 c-3.225-9.611-5.42-19.583-6.566-29.854H44.779C20.087,131.368,0,151.455,0,176.148v206.03c0,24.693,20.087,44.781,44.779,44.781 h361.976c24.694,0,44.781-20.088,44.781-44.781V228.043c-10.565,9.232-21.118,16.36-29.854,21.536V382.179z M31.485,388.667 c-0.97-1.983-1.631-4.132-1.631-6.488v-206.03c0-0.058,0.029-0.101,0.029-0.159l107.141,107.14L31.485,388.667z M65.261,397.106 l92.871-92.869l41.922,41.924c6.874,6.872,16.007,10.654,25.714,10.654c9.71,0,18.841-3.782,25.715-10.654l41.924-41.924 l92.86,92.869H65.261z"/> </g> </g>
</svg>