<svg width="22" height="19" viewBox="0 0 22 19" fill="none" xmlns="http://www.w3.org/2000/svg">
<path d="M0.75 3.25L7.66302 7.16697C10.2116 8.61101 11.2884 8.61101 13.837 7.16697L20.75 3.25" stroke="#F5F5F5" stroke-width="1.5" stroke-linejoin="round"/>
<path d="M0.765766 10.7256C0.831141 13.7912 0.863829 15.3239 1.99496 16.4594C3.12608 17.5948 4.70033 17.6343 7.84883 17.7134C9.78931 17.7622 11.7107 17.7622 13.6512 17.7134C16.7997 17.6343 18.3739 17.5948 19.5051 16.4594C20.6362 15.3239 20.6689 13.7912 20.7342 10.7256C20.7553 9.73994 20.7553 8.76008 20.7342 7.77439C20.6689 4.70886 20.6362 3.17609 19.5051 2.04066C18.3739 0.905231 16.7997 0.865677 13.6512 0.786569C11.7107 0.737813 9.78931 0.73781 7.84882 0.786562C4.70033 0.865664 3.12608 0.905215 1.99495 2.04065C0.863823 3.17608 0.831137 4.70885 0.765764 7.77438C0.744745 8.76007 0.744745 9.73994 0.765766 10.7256Z" stroke="#F5F5F5" stroke-width="1.5" stroke-linejoin="round"/>
</svg>
