<svg width="32" height="32" viewBox="0 0 32 32" fill="none" xmlns="http://www.w3.org/2000/svg">
<mask id="mask0_1_1416" style="mask-type:alpha" maskUnits="userSpaceOnUse" x="0" y="0" width="32" height="32">
<rect width="32" height="32" fill="#D9D9D9"/>
</mask>
<g mask="url(#mask0_1_1416)">
<path d="M1.97917 27.4614V24.4974C1.97917 23.8412 2.15095 23.2379 2.4945 22.6874C2.83806 22.137 3.3175 21.7079 3.93284 21.4001C5.04062 20.8394 6.27995 20.3762 7.65084 20.0104C9.02173 19.6447 10.4645 19.4618 11.9792 19.4618C13.4936 19.4618 14.9363 19.6447 16.3072 20.0104C17.6781 20.3762 18.9174 20.8394 20.0252 21.4001C20.6405 21.7079 21.1199 22.137 21.4635 22.6874C21.8073 23.2379 21.9792 23.8412 21.9792 24.4974V27.4614H1.97917ZM3.97917 25.4618H19.9792V24.4974C19.9792 24.1932 19.8966 23.9325 19.7315 23.7154C19.5666 23.4983 19.3585 23.3214 19.1072 23.1848C18.2901 22.7677 17.2537 22.3762 15.9982 22.0104C14.7426 21.6447 13.4029 21.4618 11.9792 21.4618C10.5552 21.4618 9.21539 21.6447 7.95984 22.0104C6.70428 22.3762 5.66795 22.7677 4.85084 23.1848C4.59951 23.3214 4.39139 23.4983 4.22651 23.7154C4.06162 23.9325 3.97917 24.1932 3.97917 24.4974V25.4618ZM11.9792 17.3078C10.6749 17.3078 9.57106 16.8561 8.6675 15.9528C7.76417 15.0492 7.3125 13.9197 7.3125 12.5641H7.00484C6.83039 12.5641 6.6885 12.5094 6.57917 12.4001C6.46984 12.2908 6.41517 12.1489 6.41517 11.9744C6.41517 11.8002 6.46984 11.6583 6.57917 11.5488C6.6885 11.4394 6.83039 11.3848 7.00484 11.3848H7.3125C7.32962 10.5472 7.52273 9.79043 7.89184 9.11443C8.26117 8.43821 8.78595 7.85821 9.46617 7.37443V8.6411C9.46617 8.81554 9.52095 8.95743 9.6305 9.06677C9.73984 9.17632 9.88173 9.2311 10.0562 9.2311C10.2304 9.2311 10.3722 9.17632 10.4815 9.06677C10.5911 8.95743 10.6458 8.81554 10.6458 8.6411V6.86677C10.8372 6.8001 11.0462 6.74588 11.2728 6.7041C11.4993 6.6621 11.7347 6.6411 11.9792 6.6411C12.2236 6.6411 12.4591 6.6621 12.6855 6.7041C12.9119 6.74588 13.1209 6.8001 13.3125 6.86677V8.6411C13.3125 8.81554 13.3672 8.95743 13.4765 9.06677C13.5858 9.17632 13.7277 9.2311 13.9022 9.2311C14.0766 9.2311 14.2185 9.17632 14.3278 9.06677C14.4372 8.95743 14.4918 8.81554 14.4918 8.6411V7.37443C15.1807 7.85821 15.7076 8.43821 16.0725 9.11443C16.4376 9.79043 16.6287 10.5472 16.6458 11.3848H16.9535C17.1277 11.3848 17.2696 11.4394 17.3792 11.5488C17.4885 11.6583 17.5432 11.8002 17.5432 11.9744C17.5432 12.1489 17.4885 12.2908 17.3792 12.4001C17.2696 12.5094 17.1277 12.5641 16.9535 12.5641H16.6458C16.6458 13.9197 16.1941 15.0492 15.2905 15.9528C14.3872 16.8561 13.2834 17.3078 11.9792 17.3078ZM11.9792 15.3078C12.7296 15.3078 13.3616 15.051 13.8752 14.5374C14.3889 14.0237 14.6458 13.3915 14.6458 12.6411H9.3125C9.3125 13.3915 9.56928 14.0237 10.0828 14.5374C10.5966 15.051 11.2287 15.3078 11.9792 15.3078ZM22.0048 19.8974L21.8562 18.9231C21.7057 18.8787 21.5544 18.818 21.4022 18.7411C21.2499 18.6642 21.1141 18.5659 20.9945 18.4461L20.0868 18.8051L19.4972 17.7591L20.2562 17.1438C20.2391 17.06 20.2305 16.9804 20.2305 16.9051V16.4348C20.2305 16.3639 20.2391 16.2822 20.2562 16.1898L19.4972 15.5744L20.0868 14.5284L20.9945 14.8874C21.1005 14.7814 21.233 14.6865 21.3918 14.6028C21.5509 14.519 21.7057 14.4549 21.8562 14.4104L22.0048 13.4361H23.1842L23.3328 14.4104C23.4833 14.4549 23.6381 14.519 23.7972 14.6028C23.9561 14.6865 24.0885 14.7814 24.1945 14.8874L25.1022 14.5284L25.6918 15.5744L24.9328 16.1898C24.9499 16.2822 24.9585 16.3639 24.9585 16.4348V16.9051C24.9585 16.9804 24.9499 17.06 24.9328 17.1438L25.6918 17.7591L25.1022 18.8051L24.1945 18.4461C24.0747 18.5659 23.9388 18.6642 23.7868 18.7411C23.6346 18.818 23.4833 18.8787 23.3328 18.9231L23.1842 19.8974H22.0048ZM22.5945 17.7694C22.8954 17.7694 23.1544 17.6609 23.3715 17.4438C23.5886 17.2267 23.6972 16.9677 23.6972 16.6668C23.6972 16.3659 23.5886 16.1069 23.3715 15.8898C23.1544 15.6727 22.8954 15.5641 22.5945 15.5641C22.2936 15.5641 22.0346 15.6727 21.8175 15.8898C21.6004 16.1069 21.4918 16.3659 21.4918 16.6668C21.4918 16.9677 21.6004 17.2267 21.8175 17.4438C22.0346 17.6609 22.2936 17.7694 22.5945 17.7694ZM25.1482 12.9488L24.9585 11.7284C24.733 11.6702 24.5091 11.5783 24.2868 11.4528C24.0646 11.327 23.8783 11.1761 23.7278 11.0001L22.5328 11.4411L21.7792 10.1488L22.7842 9.32843C22.7397 9.20865 22.7133 9.09832 22.7048 8.99743C22.6962 8.89654 22.6918 8.78632 22.6918 8.66677C22.6918 8.54721 22.6962 8.43699 22.7048 8.3361C22.7133 8.23521 22.7397 8.12488 22.7842 8.0051L21.7792 7.18477L22.5328 5.89243L23.7278 6.33343C23.8783 6.15743 24.0646 6.00654 24.2868 5.88077C24.5091 5.75521 24.733 5.66332 24.9585 5.6051L25.1482 4.38477H26.6558L26.8458 5.6051C27.0714 5.66332 27.2953 5.75521 27.5175 5.88077C27.7397 6.00654 27.9261 6.15743 28.0765 6.33343L29.2715 5.89243L30.0252 7.18477L29.0202 8.0051C29.0646 8.12488 29.0911 8.23521 29.0995 8.3361C29.1082 8.43699 29.1125 8.54721 29.1125 8.66677C29.1125 8.78632 29.1082 8.89654 29.0995 8.99743C29.0911 9.09832 29.0646 9.20865 29.0202 9.32843L30.0252 10.1488L29.2715 11.4411L28.0765 11.0001C27.9261 11.1761 27.7397 11.327 27.5175 11.4528C27.2953 11.5783 27.0714 11.6702 26.8458 11.7284L26.6558 12.9488H25.1482ZM25.9022 10.4104C26.3944 10.4104 26.8081 10.2429 27.1432 9.90777C27.4783 9.57265 27.6458 9.15899 27.6458 8.66677C27.6458 8.17454 27.4783 7.76088 27.1432 7.42577C26.8081 7.09066 26.3944 6.9231 25.9022 6.9231C25.41 6.9231 24.9963 7.09066 24.6612 7.42577C24.3261 7.76088 24.1585 8.17454 24.1585 8.66677C24.1585 9.15899 24.3261 9.57265 24.6612 9.90777C24.9963 10.2429 25.41 10.4104 25.9022 10.4104Z" fill="#0099FF"/>
</g>
</svg>
