<svg width="48" height="48" viewBox="0 0 48 48" fill="none" xmlns="http://www.w3.org/2000/svg">
<path d="M6 22L6.30576 28.4538C6.63428 35.3372 6.79854 38.7788 9.1177 40.8894C11.4369 43 15.0543 43 22.2892 43H25.7108C32.9456 43 36.5632 43 38.8824 40.8894C41.2014 38.7788 41.3658 35.3372 41.6942 28.4538L42 22" stroke="#0099FF" stroke-width="3" stroke-linecap="round" stroke-linejoin="round"/>
<path d="M5.69436 20.8862C9.09296 27.3488 16.7584 30 24 30C31.2416 30 38.907 27.3488 42.3056 20.8862C43.928 17.8011 42.6996 12 38.704 12H9.296C5.30046 12 4.07206 17.8011 5.69436 20.8862Z" stroke="#0099FF" stroke-width="3"/>
<path d="M24 22H24.018" stroke="#0099FF" stroke-width="3" stroke-linecap="round" stroke-linejoin="round"/>
<path d="M32 12L31.8234 11.3819C30.9434 8.30178 30.5034 6.76174 29.4558 5.88086C28.4082 5 27.0168 5 24.2338 5H23.766C20.9832 5 19.5917 5 18.5442 5.88086C17.4966 6.76174 17.0566 8.30178 16.1766 11.3819L16 12" stroke="#0099FF" stroke-width="3"/>
</svg>
