<svg width="48" height="48" viewBox="0 0 48 48" fill="none" xmlns="http://www.w3.org/2000/svg">
<path d="M17.7149 25.0122C12.738 21.2912 9.19127 17.1983 7.25467 14.8973C6.65519 14.1851 6.45876 13.6638 6.34065 12.7456C5.93623 9.60161 5.73402 8.02961 6.65591 7.0148C7.5778 6 9.20808 6 12.4687 6H35.5314C38.7919 6 40.4222 6 41.3441 7.0148C42.266 8.02961 42.0638 9.60161 41.6593 12.7456C41.5412 13.6638 41.3448 14.1851 40.7453 14.8973C38.806 17.2012 35.2522 21.3014 30.2651 25.0271C29.814 25.3642 29.5166 25.9135 29.4614 26.5228C28.9674 31.9839 28.5118 34.9752 28.2282 36.4884C27.7705 38.9314 24.3063 40.4012 22.452 41.7127C21.3481 42.4933 20.0086 41.5639 19.8656 40.3556C19.5929 38.0522 19.0792 33.3727 18.5185 26.5228C18.4682 25.9079 18.1697 25.3522 17.7149 25.0122Z" stroke="url(#paint0_linear_1_2909)" stroke-width="1.5" stroke-linecap="round" stroke-linejoin="round"/>
<defs>
<linearGradient id="paint0_linear_1_2909" x1="42" y1="42" x2="6" y2="6" gradientUnits="userSpaceOnUse">
<stop stop-color="white"/>
<stop offset="1" stop-color="#064199"/>
</linearGradient>
</defs>
</svg>
