<svg width="32" height="32" viewBox="0 0 32 32" fill="none" xmlns="http://www.w3.org/2000/svg">
<mask id="mask0_1_1398" style="mask-type:alpha" maskUnits="userSpaceOnUse" x="0" y="0" width="32" height="32">
<rect width="32" height="32" fill="#D9D9D9"/>
</mask>
<g mask="url(#mask0_1_1398)">
<path d="M15.0126 27.6667V24.877C13.8519 24.6702 12.8524 24.2167 12.0139 23.5167C11.1755 22.8167 10.5563 21.8377 10.1562 20.5797L12.0076 19.8104C12.3665 20.8428 12.8779 21.6326 13.5419 22.1797C14.2061 22.7266 15.0929 23 16.2023 23C17.1647 23 18.0139 22.771 18.7499 22.313C19.4857 21.8548 19.8536 21.1283 19.8536 20.1334C19.8536 19.27 19.5771 18.5807 19.0243 18.0654C18.4711 17.55 17.3271 17.012 15.5922 16.4514C13.7751 15.8769 12.5131 15.2052 11.8063 14.436C11.0994 13.6667 10.7459 12.6992 10.7459 11.5334C10.7459 10.1916 11.2169 9.1356 12.1589 8.36538C13.1007 7.59537 14.0519 7.1676 15.0126 7.08204V4.33337H17.0126V7.08204C18.0297 7.21715 18.8844 7.54793 19.5766 8.07437C20.269 8.60082 20.8075 9.28548 21.1919 10.1284L19.3666 10.964C19.0741 10.3214 18.6664 9.82226 18.1433 9.46671C17.6204 9.11115 16.9324 8.93337 16.0793 8.93337C15.0759 8.93337 14.2695 9.17782 13.6599 9.66671C13.0506 10.1556 12.7459 10.7778 12.7459 11.5334C12.7459 12.3094 13.0579 12.9299 13.6819 13.395C14.3057 13.8599 15.4655 14.347 17.1613 14.8564C18.7373 15.335 19.9134 16.0172 20.6896 16.9027C21.4656 17.788 21.8536 18.8513 21.8536 20.0924C21.8536 21.5504 21.3848 22.6819 20.4473 23.487C19.5097 24.2924 18.3648 24.7694 17.0126 24.918V27.6667H15.0126Z" fill="#0099FF"/>
</g>
</svg>
