<svg width="48" height="48" viewBox="0 0 48 48" fill="none" xmlns="http://www.w3.org/2000/svg">
<path d="M41.7657 35.1397L42.5093 35.0424L41.7657 35.1397ZM38.8853 32.3892L38.9207 31.64L38.8853 32.3892ZM38.8853 43.9108L38.9207 44.66L38.8853 43.9108ZM41.7657 41.1603L41.022 41.0629L41.7657 41.1603ZM31.1147 32.3892L31.1501 33.1383L31.1147 32.3892ZM28.2343 35.1397L28.978 35.2371L28.2343 35.1397ZM31.1147 43.9108L31.1501 43.1617L31.1147 43.9108ZM28.2343 41.1603L28.978 41.0629L28.2343 41.1603ZM30.3125 32.3C30.3125 32.7142 30.6483 33.05 31.0625 33.05C31.4767 33.05 31.8125 32.7142 31.8125 32.3H31.0625H30.3125ZM38.1875 32.3C38.1875 32.7142 38.5233 33.05 38.9375 33.05C39.3517 33.05 39.6875 32.7142 39.6875 32.3H38.9375H38.1875ZM35 44V43.25C33.6249 43.25 32.3775 43.2197 31.1501 43.1617L31.1147 43.9108L31.0793 44.66C32.331 44.7192 33.6019 44.75 35 44.75V44ZM38.8853 43.9108L38.8499 43.1617C37.6225 43.2197 36.3751 43.25 35 43.25V44V44.75C36.3981 44.75 37.669 44.7192 38.9207 44.66L38.8853 43.9108ZM41.7657 41.1603L42.5093 41.2576C42.6391 40.2665 42.75 39.223 42.75 38.15H42H41.25C41.25 39.1247 41.1491 40.0919 41.022 41.0629L41.7657 41.1603ZM42 38.15H42.75C42.75 37.077 42.6391 36.0335 42.5093 35.0424L41.7657 35.1397L41.022 35.2371C41.1491 36.2081 41.25 37.1753 41.25 38.15H42ZM35 32.3V33.05C36.3752 33.05 37.6225 33.0803 38.8499 33.1383L38.8853 32.3892L38.9207 31.64C37.669 31.5808 36.3981 31.55 35 31.55V32.3ZM31.1147 32.3892L31.1501 33.1383C32.3775 33.0803 33.6249 33.05 35 33.05V32.3V31.55C33.6019 31.55 32.331 31.5808 31.0793 31.64L31.1147 32.3892ZM28.2343 35.1397L27.4907 35.0424C27.3609 36.0335 27.25 37.077 27.25 38.15H28H28.75C28.75 37.1753 28.8509 36.2081 28.978 35.2371L28.2343 35.1397ZM28 38.15H27.25C27.25 39.223 27.3609 40.2665 27.4907 41.2576L28.2343 41.1603L28.978 41.0629C28.8509 40.0919 28.75 39.1247 28.75 38.15H28ZM41.7657 35.1397L42.5093 35.0424C42.269 33.2068 40.7838 31.7281 38.9207 31.64L38.8853 32.3892L38.8499 33.1383C39.933 33.1896 40.8687 34.0662 41.022 35.2371L41.7657 35.1397ZM38.8853 43.9108L38.9207 44.66C40.7838 44.5719 42.269 43.0932 42.5093 41.2576L41.7657 41.1603L41.022 41.0629C40.8687 42.2338 39.933 43.1104 38.8499 43.1617L38.8853 43.9108ZM31.1147 32.3892L31.0793 31.64C29.2162 31.7281 27.731 33.2068 27.4907 35.0424L28.2343 35.1397L28.978 35.2371C29.1313 34.0662 30.067 33.1896 31.1501 33.1383L31.1147 32.3892ZM31.1147 43.9108L31.1501 43.1617C30.067 43.1104 29.1313 42.2338 28.978 41.0629L28.2343 41.1603L27.4907 41.2576C27.731 43.0932 29.2162 44.5719 31.0793 44.66L31.1147 43.9108ZM31.0625 32.3H31.8125V30.05H31.0625H30.3125V32.3H31.0625ZM38.9375 30.05H38.1875V32.3H38.9375H39.6875V30.05H38.9375ZM35 26V26.75C36.7406 26.75 38.1875 28.2074 38.1875 30.05H38.9375H39.6875C39.6875 27.4191 37.6086 25.25 35 25.25V26ZM31.0625 30.05H31.8125C31.8125 28.2074 33.2594 26.75 35 26.75V26V25.25C32.3914 25.25 30.3125 27.4191 30.3125 30.05H31.0625Z" fill="url(#paint0_linear_1_1862)"/>
<path d="M21.8901 44C13.1142 44 6 36.8366 6 28C6 23.8324 7.91658 19.6649 10.4185 16C10.9319 19 13.1505 24.8 17.9176 24C12.67 13 21.8901 4 21.8901 4C21.8901 4 22.8832 11 31.8214 18C32.649 18.6481 33.3715 19.3161 34 20" stroke="url(#paint1_linear_1_1862)" stroke-width="1.5" stroke-linecap="round" stroke-linejoin="round"/>
<defs>
<linearGradient id="paint0_linear_1_1862" x1="28" y1="44" x2="45.4462" y2="30.4308" gradientUnits="userSpaceOnUse">
<stop stop-color="white"/>
<stop offset="1" stop-color="#064199"/>
</linearGradient>
<linearGradient id="paint1_linear_1_1862" x1="6" y1="44" x2="43.5839" y2="17.6913" gradientUnits="userSpaceOnUse">
<stop stop-color="white"/>
<stop offset="1" stop-color="#064199"/>
</linearGradient>
</defs>
</svg>
