<svg width="169" height="180" viewBox="0 0 169 180" fill="none" xmlns="http://www.w3.org/2000/svg">
<path d="M43.7522 -17.5C29.7753 -16.1183 20.3671 -12.9955 13.3451 -5.93796C0.75 6.72068 0.75 27.0945 0.75 67.842V111.061C0.75 151.809 0.75 172.183 13.3451 184.841C25.9401 197.5 46.2115 197.5 86.7544 197.5H108.256C148.798 197.5 169.07 197.5 181.665 184.841C193.095 173.353 194.152 155.635 194.25 121.998" stroke="#9BC3FF" stroke-width="1.5" stroke-linecap="round" stroke-linejoin="round"/>
<path d="M90.438 36.0856C90.3472 35.6815 89.946 35.4274 89.5418 35.5182C89.1377 35.609 88.8837 36.0103 88.9745 36.4144L89.7063 36.25L90.438 36.0856ZM98.4604 75.2142L99.1922 75.0498V75.0498L98.4604 75.2142ZM174.33 37.0898C174.423 36.6861 174.171 36.2837 173.767 36.1909C173.363 36.0982 172.961 36.3503 172.868 36.7539L173.599 36.9219L174.33 37.0898ZM164.802 75.2142L164.071 75.0463L164.07 75.0498L164.802 75.2142ZM102.752 81.967L103.178 81.3494V81.3494L102.752 81.967ZM160.51 81.967L160.936 82.5846V82.5846L160.51 81.967ZM199.927 22.9218C199.927 22.5076 199.591 22.1718 199.177 22.1718C198.763 22.1718 198.427 22.5076 198.427 22.9218H199.177H199.927ZM198.427 73.2031C198.427 73.6173 198.763 73.9531 199.177 73.9531C199.591 73.9531 199.927 73.6173 199.927 73.2031H199.177H198.427ZM65.25 16.0938H66C66 15.7222 66.1488 15.2366 66.527 14.6257C66.9019 14.0202 67.4714 13.3416 68.2332 12.599C69.7567 11.114 71.9743 9.44534 74.7147 7.67105C80.1896 4.12626 87.6477 0.225777 95.5384 -3.40236C103.426 -7.02894 111.723 -10.3731 118.866 -12.8089C122.438 -14.0268 125.714 -15.015 128.502 -15.6978C131.302 -16.3838 133.563 -16.75 135.125 -16.75V-17.5V-18.25C133.378 -18.25 130.975 -17.8481 128.145 -17.1547C125.302 -16.4582 121.981 -15.4557 118.382 -14.2286C111.184 -11.7741 102.839 -8.41018 94.9117 -4.7652C86.9878 -1.12179 79.4584 2.81272 73.8994 6.41192C71.1229 8.20963 68.8119 9.94024 67.1862 11.5249C66.3733 12.3172 65.713 13.091 65.2517 13.836C64.7938 14.5756 64.5 15.3384 64.5 16.0938H65.25ZM205 16.0938H205.75C205.75 15.3384 205.456 14.5756 204.998 13.836C204.537 13.091 203.877 12.3172 203.064 11.5249C201.438 9.94024 199.127 8.20963 196.351 6.41193C190.792 2.81273 183.262 -1.12179 175.338 -4.7652C167.411 -8.41018 159.066 -11.7741 151.868 -14.2286C148.269 -15.4557 144.948 -16.4582 142.105 -17.1547C139.275 -17.8481 136.872 -18.25 135.125 -18.25V-17.5V-16.75C136.687 -16.75 138.948 -16.3838 141.748 -15.6978C144.536 -15.015 147.812 -14.0268 151.384 -12.8089C158.527 -10.3731 166.824 -7.02894 174.712 -3.40236C182.602 0.225777 190.06 4.12626 195.535 7.67105C198.276 9.44534 200.493 11.114 202.017 12.599C202.779 13.3416 203.348 14.0202 203.723 14.6257C204.101 15.2366 204.25 15.7222 204.25 16.0938H205ZM205 16.0938H204.25C204.25 16.4653 204.101 16.9509 203.723 17.5618C203.348 18.1673 202.779 18.8459 202.017 19.5885C200.493 21.0735 198.276 22.7422 195.535 24.5165C190.06 28.0612 182.602 31.9617 174.712 35.5899C166.824 39.2164 158.527 42.5606 151.384 44.9964C147.812 46.2143 144.536 47.2025 141.748 47.8853C138.948 48.5713 136.687 48.9375 135.125 48.9375V49.6875V50.4375C136.872 50.4375 139.275 50.0356 142.105 49.3422C144.948 48.6457 148.269 47.6432 151.868 46.4161C159.066 43.9616 167.411 40.5977 175.338 36.9527C183.262 33.3093 190.792 29.3748 196.351 25.7756C199.127 23.9779 201.438 22.2473 203.064 20.6626C203.877 19.8703 204.537 19.0965 204.998 18.3515C205.456 17.6119 205.75 16.8491 205.75 16.0938H205ZM65.25 16.0938H64.5C64.5 16.8491 64.7938 17.6119 65.2517 18.3515C65.713 19.0965 66.3733 19.8703 67.1862 20.6626C68.8119 22.2473 71.1229 23.9779 73.8994 25.7756C79.4584 29.3748 86.9878 33.3093 94.9117 36.9527C102.839 40.5977 111.184 43.9616 118.382 46.4161C121.981 47.6432 125.302 48.6457 128.145 49.3422C130.975 50.0356 133.378 50.4375 135.125 50.4375V49.6875V48.9375C133.563 48.9375 131.302 48.5713 128.502 47.8853C125.714 47.2025 122.438 46.2143 118.866 44.9964C111.723 42.5606 103.426 39.2164 95.5384 35.5899C87.6477 31.9617 80.1896 28.0612 74.7147 24.5164C71.9743 22.7422 69.7567 21.0735 68.2332 19.5885C67.4714 18.8459 66.9019 18.1673 66.527 17.5618C66.1488 16.9509 66 16.4653 66 16.0938H65.25ZM89.7063 36.25L88.9745 36.4144L97.7287 75.3786L98.4604 75.2142L99.1922 75.0498L90.438 36.0856L89.7063 36.25ZM173.599 36.9219L172.868 36.7539L164.071 75.0463L164.802 75.2142L165.533 75.3822L174.33 37.0898L173.599 36.9219ZM102.752 81.967L102.327 82.5846C110.254 88.0465 120.966 90.75 131.631 90.75C142.296 90.75 153.009 88.0465 160.936 82.5846L160.51 81.967L160.085 81.3494C152.467 86.5981 142.073 89.25 131.631 89.25C121.189 89.25 110.795 86.5981 103.178 81.3494L102.752 81.967ZM164.802 75.2142L164.07 75.0498C163.501 77.5828 162.201 79.8912 160.085 81.3494L160.51 81.967L160.936 82.5846C163.436 80.8619 164.904 78.1834 165.534 75.3786L164.802 75.2142ZM98.4604 75.2142L97.7287 75.3786C98.3588 78.1834 99.8267 80.8619 102.327 82.5846L102.752 81.967L103.178 81.3494C101.062 79.8912 99.7613 77.5828 99.1922 75.0498L98.4604 75.2142ZM199.177 22.9218H198.427V73.2031H199.177H199.927V22.9218H199.177Z" fill="#9BC3FF"/>
</svg>
