<svg width="17" height="19" viewBox="0 0 17 19" fill="none" xmlns="http://www.w3.org/2000/svg">
<g id="instagram logo" clip-path="url(#clip0_23_412)">
<path id="Vector" d="M8.50344 5.45708C6.23201 5.45708 4.39987 7.26059 4.39987 9.49653C4.39987 11.7325 6.23201 13.536 8.50344 13.536C10.7749 13.536 12.607 11.7325 12.607 9.49653C12.607 7.26059 10.7749 5.45708 8.50344 5.45708ZM8.50344 12.1227C7.03558 12.1227 5.83558 10.945 5.83558 9.49653C5.83558 8.04809 7.03201 6.87036 8.50344 6.87036C9.97486 6.87036 11.1713 8.04809 11.1713 9.49653C11.1713 10.945 9.97129 12.1227 8.50344 12.1227V12.1227ZM13.732 5.29184C13.732 5.81567 13.3034 6.23403 12.7749 6.23403C12.2427 6.23403 11.8177 5.81216 11.8177 5.29184C11.8177 4.77153 12.2463 4.34966 12.7749 4.34966C13.3034 4.34966 13.732 4.77153 13.732 5.29184ZM16.4499 6.24809C16.3891 4.98598 16.0963 3.86802 15.157 2.94692C14.2213 2.02583 13.0856 1.73755 11.8034 1.67427C10.482 1.60044 6.5213 1.60044 5.19987 1.67427C3.9213 1.73403 2.78558 2.02231 1.8463 2.94341C0.907014 3.8645 0.617728 4.98247 0.553442 6.24458C0.478442 7.54536 0.478442 11.4442 0.553442 12.745C0.614157 14.0071 0.907014 15.125 1.8463 16.0461C2.78558 16.9672 3.91773 17.2555 5.19987 17.3188C6.5213 17.3926 10.482 17.3926 11.8034 17.3188C13.0856 17.259 14.2213 16.9707 15.157 16.0461C16.0927 15.125 16.3856 14.0071 16.4499 12.745C16.5249 11.4442 16.5249 7.54887 16.4499 6.24809V6.24809ZM14.7427 14.1407C14.4641 14.8297 13.9249 15.3606 13.2213 15.6383C12.1677 16.0497 9.66772 15.9547 8.50344 15.9547C7.33915 15.9547 4.83558 16.0461 3.78558 15.6383C3.08558 15.3641 2.5463 14.8332 2.26416 14.1407C1.8463 13.1036 1.94273 10.6426 1.94273 9.49653C1.94273 8.35044 1.84987 5.88598 2.26416 4.85239C2.54273 4.16333 3.08201 3.63247 3.78558 3.35474C4.83915 2.94341 7.33915 3.03833 8.50344 3.03833C9.66772 3.03833 12.1713 2.94692 13.2213 3.35474C13.9213 3.62895 14.4606 4.15981 14.7427 4.85239C15.1606 5.8895 15.0641 8.35044 15.0641 9.49653C15.0641 10.6426 15.1606 13.1071 14.7427 14.1407Z" fill="#2B2B2B"/>
</g>
<defs>
<clipPath id="clip0_23_412">
<rect width="16" height="18" fill="white" transform="translate(0.500122 0.5)"/>
</clipPath>
</defs>
</svg>
