<svg width="20" height="21" viewBox="0 0 20 21" fill="none" xmlns="http://www.w3.org/2000/svg">
<g id="book_4">
<mask id="mask0_1_1695" style="mask-type:alpha" maskUnits="userSpaceOnUse" x="0" y="0" width="20" height="21">
<rect id="Bounding box" y="0.5" width="20" height="20" fill="#D9D9D9"/>
</mask>
<g mask="url(#mask0_1_1695)">
<path id="book_4_2" d="M5 18.8334C4.30556 18.8334 3.71528 18.5904 3.22917 18.1042C2.74306 17.6181 2.5 17.0279 2.5 16.3334V4.66675C2.5 3.9723 2.74306 3.38203 3.22917 2.89591C3.71528 2.4098 4.30556 2.16675 5 2.16675H14.1667V15.5001H5C4.76389 15.5001 4.56597 15.5799 4.40625 15.7397C4.24653 15.8994 4.16667 16.0973 4.16667 16.3334C4.16667 16.5695 4.24653 16.7674 4.40625 16.9272C4.56597 17.0869 4.76389 17.1667 5 17.1667H15.8333V3.83341H17.5V18.8334H5ZM7.5 13.8334H12.5V3.83341H7.5V13.8334ZM5.83333 13.8334V3.83341H5C4.76389 3.83341 4.56597 3.91328 4.40625 4.073C4.24653 4.23272 4.16667 4.43064 4.16667 4.66675V13.9792C4.30556 13.9376 4.44097 13.9029 4.57292 13.8751C4.70486 13.8473 4.84722 13.8334 5 13.8334H5.83333Z" fill="#FFC178"/>
</g>
</g>
</svg>
