<svg width="17" height="16" viewBox="0 0 17 16" fill="none" xmlns="http://www.w3.org/2000/svg">
<g id="linkedin logo" clip-path="url(#clip0_23_416)">
<path id="Vector" d="M4.13281 15.5V5.37953H0.702508V15.5H4.13281ZM2.4181 3.99692C3.61431 3.99692 4.35889 3.21978 4.35889 2.24862C4.3366 1.25556 3.61436 0.5 2.4408 0.5C1.26743 0.5 0.500122 1.25558 0.500122 2.24862C0.500122 3.21983 1.24452 3.99692 2.39571 3.99692H2.418H2.4181ZM6.03147 15.5H9.46177V9.84824C9.46177 9.54576 9.48406 9.2436 9.57465 9.02738C9.82263 8.42304 10.3871 7.79712 11.3346 7.79712C12.5759 7.79712 13.0725 8.7252 13.0725 10.0857V15.4999H16.5026V9.69695C16.5026 6.58833 14.8103 5.14193 12.5533 5.14193C10.7028 5.14193 9.89033 6.15626 9.43895 6.84712H9.46185V5.37932H6.03155C6.07657 6.32897 6.03155 15.4998 6.03155 15.4998L6.03147 15.5Z" fill="#2B2B2B"/>
</g>
<defs>
<clipPath id="clip0_23_416">
<rect width="16" height="15" fill="white" transform="translate(0.500122 0.5)"/>
</clipPath>
</defs>
</svg>
