<svg width="32" height="32" viewBox="0 0 32 32" fill="none" xmlns="http://www.w3.org/2000/svg">
<mask id="mask0_1_1462" style="mask-type:alpha" maskUnits="userSpaceOnUse" x="0" y="0" width="32" height="32">
<rect width="32" height="32" fill="#D9D9D9"/>
</mask>
<g mask="url(#mask0_1_1462)">
<path d="M7.07699 28.6666C6.4121 28.6666 5.8441 28.4312 5.37299 27.9603C4.9021 27.4892 4.66666 26.9212 4.66666 26.2563V11.077C4.66666 10.4121 4.9021 9.84407 5.37299 9.37296C5.8441 8.90207 6.4121 8.66663 7.07699 8.66663H9.99999C9.99999 7.00174 10.5838 5.58551 11.7513 4.41796C12.9189 3.2504 14.3351 2.66663 16 2.66663C17.6649 2.66663 19.0811 3.2504 20.2487 4.41796C21.4162 5.58551 22 7.00174 22 8.66663H24.923C25.5879 8.66663 26.1559 8.90207 26.627 9.37296C27.0979 9.84407 27.3333 10.4121 27.3333 11.077V26.2563C27.3333 26.9212 27.0979 27.4892 26.627 27.9603C26.1559 28.4312 25.5879 28.6666 24.923 28.6666H7.07699ZM7.07699 26.6666H24.923C25.0257 26.6666 25.1197 26.6238 25.205 26.5383C25.2905 26.453 25.3333 26.359 25.3333 26.2563V11.077C25.3333 10.9743 25.2905 10.8803 25.205 10.795C25.1197 10.7094 25.0257 10.6666 24.923 10.6666H7.07699C6.97432 10.6666 6.88032 10.7094 6.79499 10.795C6.70943 10.8803 6.66666 10.9743 6.66666 11.077V26.2563C6.66666 26.359 6.70943 26.453 6.79499 26.5383C6.88032 26.6238 6.97432 26.6666 7.07699 26.6666ZM16 18C17.6649 18 19.0811 17.4162 20.2487 16.2486C21.4162 15.0811 22 13.6648 22 12H20C20 13.1111 19.6111 14.0555 18.8333 14.8333C18.0555 15.6111 17.1111 16 16 16C14.8889 16 13.9444 15.6111 13.1667 14.8333C12.3889 14.0555 12 13.1111 12 12H9.99999C9.99999 13.6648 10.5838 15.0811 11.7513 16.2486C12.9189 17.4162 14.3351 18 16 18ZM12 8.66663H20C20 7.55551 19.6111 6.61107 18.8333 5.83329C18.0555 5.05551 17.1111 4.66663 16 4.66663C14.8889 4.66663 13.9444 5.05551 13.1667 5.83329C12.3889 6.61107 12 7.55551 12 8.66663Z" fill="#0099FF"/>
</g>
</svg>
