<svg width="48" height="48" viewBox="0 0 48 48" fill="none" xmlns="http://www.w3.org/2000/svg">
<path d="M39.0866 21L44 22C42.9941 11.8934 34.4459 4 24.0495 4C12.9765 4 4 12.9543 4 24C4 35.0457 12.9765 44 24.0495 44C32.2711 44 39.3368 39.0636 42.4307 32" stroke="url(#paint0_linear_1_2402)" stroke-width="1.5" stroke-linecap="round" stroke-linejoin="round"/>
<path opacity="0.4" d="M19.1606 32.7145L18.8564 33.4001H18.8564L19.1606 32.7145ZM17.2664 30.6851L16.5669 30.9555H16.5669L17.2664 30.6851ZM30.7336 30.6851L31.4331 30.9555V30.9555L30.7336 30.6851ZM28.8394 32.7145L29.1436 33.4001H29.1436L28.8394 32.7145ZM28.8394 22.0355L29.1436 21.3499V21.3499L28.8394 22.0355ZM30.7336 24.0649L31.4331 23.7945V23.7945L30.7336 24.0649ZM19.1606 22.0355L18.8564 21.3499V21.3499L19.1606 22.0355ZM17.2664 24.0649L16.5669 23.7945H16.5669L17.2664 24.0649ZM19.75 21.75C19.75 22.1642 20.0858 22.5 20.5 22.5C20.9142 22.5 21.25 22.1642 21.25 21.75H20.5H19.75ZM26.75 21.75C26.75 22.1642 27.0858 22.5 27.5 22.5C27.9142 22.5 28.25 22.1642 28.25 21.75H27.5H26.75ZM22.25 21.75V22.5H25.75V21.75V21H22.25V21.75ZM25.75 33V32.25H22.25V33L22.25 33.75H25.75V33ZM22.25 33V32.25C21.4236 32.25 20.8441 32.2495 20.3896 32.2163C19.943 32.1837 19.6749 32.1223 19.4648 32.029L19.1606 32.7145L18.8564 33.4001C19.2895 33.5923 19.7507 33.6736 20.2803 33.7123C20.8021 33.7505 21.4456 33.75 22.25 33.75L22.25 33ZM17 27.375H16.25C16.25 28.2391 16.2496 28.9222 16.2848 29.4745C16.3204 30.0326 16.3944 30.5093 16.5669 30.9555L17.2664 30.6851L17.966 30.4146C17.872 30.1717 17.8128 29.867 17.7818 29.3792C17.7504 28.8856 17.75 28.2582 17.75 27.375H17ZM19.1606 32.7145L19.4648 32.029C18.7986 31.7334 18.2536 31.1585 17.966 30.4146L17.2664 30.6851L16.5669 30.9555C16.9897 32.0493 17.8074 32.9345 18.8564 33.4001L19.1606 32.7145ZM31 27.375H30.25C30.25 28.2582 30.2496 28.8856 30.2182 29.3792C30.1872 29.867 30.128 30.1717 30.034 30.4146L30.7336 30.6851L31.4331 30.9555C31.6056 30.5093 31.6796 30.0326 31.7152 29.4745C31.7504 28.9222 31.75 28.2391 31.75 27.375H31ZM25.75 33V33.75C26.5544 33.75 27.1979 33.7505 27.7197 33.7123C28.2493 33.6736 28.7105 33.5923 29.1436 33.4001L28.8394 32.7145L28.5352 32.029C28.3251 32.1223 28.057 32.1837 27.6104 32.2163C27.1559 32.2495 26.5764 32.25 25.75 32.25V33ZM30.7336 30.6851L30.034 30.4146C29.7464 31.1585 29.2014 31.7334 28.5352 32.029L28.8394 32.7145L29.1436 33.4001C30.1926 32.9345 31.0103 32.0493 31.4331 30.9555L30.7336 30.6851ZM25.75 21.75V22.5C26.5764 22.5 27.1559 22.5005 27.6104 22.5337C28.057 22.5663 28.3251 22.6277 28.5352 22.721L28.8394 22.0355L29.1436 21.3499C28.7105 21.1577 28.2493 21.0764 27.7197 21.0377C27.1979 20.9995 26.5544 21 25.75 21V21.75ZM31 27.375H31.75C31.75 26.5109 31.7504 25.8278 31.7152 25.2755C31.6796 24.7174 31.6056 24.2407 31.4331 23.7945L30.7336 24.0649L30.034 24.3354C30.128 24.5783 30.1872 24.883 30.2182 25.3708C30.2496 25.8644 30.25 26.4918 30.25 27.375H31ZM28.8394 22.0355L28.5352 22.721C29.2014 23.0166 29.7464 23.5915 30.034 24.3354L30.7336 24.0649L31.4331 23.7945C31.0103 22.7007 30.1926 21.8155 29.1436 21.3499L28.8394 22.0355ZM22.25 21.75V21C21.4456 21 20.8021 20.9995 20.2803 21.0377C19.7507 21.0764 19.2895 21.1577 18.8564 21.3499L19.1606 22.0355L19.4648 22.721C19.6749 22.6277 19.943 22.5663 20.3896 22.5337C20.8441 22.5005 21.4236 22.5 22.25 22.5V21.75ZM17 27.375H17.75C17.75 26.4918 17.7504 25.8644 17.7818 25.3708C17.8128 24.883 17.872 24.5783 17.966 24.3354L17.2664 24.0649L16.5669 23.7945C16.3944 24.2407 16.3204 24.7174 16.2848 25.2755C16.2496 25.8278 16.25 26.5109 16.25 27.375H17ZM19.1606 22.0355L18.8564 21.3499C17.8074 21.8155 16.9897 22.7007 16.5669 23.7945L17.2664 24.0649L17.966 24.3354C18.2536 23.5915 18.7986 23.0166 19.4648 22.721L19.1606 22.0355ZM20.5 21.75H21.25V18.375H20.5H19.75V21.75H20.5ZM27.5 18.375H26.75V21.75H27.5H28.25V18.375H27.5ZM24 15V15.75C25.5447 15.75 26.75 16.9507 26.75 18.375H27.5H28.25C28.25 16.0714 26.3213 14.25 24 14.25V15ZM20.5 18.375H21.25C21.25 16.9507 22.4553 15.75 24 15.75V15V14.25C21.6787 14.25 19.75 16.0714 19.75 18.375H20.5Z" fill="url(#paint1_linear_1_2402)"/>
<defs>
<linearGradient id="paint0_linear_1_2402" x1="4" y1="44" x2="44" y2="4" gradientUnits="userSpaceOnUse">
<stop stop-color="white"/>
<stop offset="1" stop-color="#064199"/>
</linearGradient>
<linearGradient id="paint1_linear_1_2402" x1="17" y1="33" x2="34.4462" y2="19.4308" gradientUnits="userSpaceOnUse">
<stop stop-color="white"/>
<stop offset="1" stop-color="#064199"/>
</linearGradient>
</defs>
</svg>
