<svg width="36" height="36" viewBox="0 0 36 36" fill="none" xmlns="http://www.w3.org/2000/svg">
<mask id="mask0_1_4390" style="mask-type:alpha" maskUnits="userSpaceOnUse" x="0" y="0" width="36" height="36">
<rect width="36" height="36" fill="#D9D9D9"/>
</mask>
<g mask="url(#mask0_1_4390)">
<path d="M18.0002 19.5L30.0002 12V9L18.0002 16.5L6.00024 9V12L18.0002 19.5ZM28.5002 30C28.0752 30 27.719 29.8563 27.4315 29.5688C27.144 29.2812 27.0002 28.925 27.0002 28.5V24C27.0002 23.575 27.144 23.2188 27.4315 22.9313C27.719 22.6438 28.0752 22.5 28.5002 22.5V21C28.5002 20.175 28.794 19.4688 29.3815 18.8813C29.969 18.2938 30.6752 18 31.5002 18C32.3252 18 33.0315 18.2938 33.619 18.8813C34.2065 19.4688 34.5002 20.175 34.5002 21V22.5C34.9252 22.5 35.2815 22.6438 35.569 22.9313C35.8565 23.2188 36.0002 23.575 36.0002 24V28.5C36.0002 28.925 35.8565 29.2812 35.569 29.5688C35.2815 29.8563 34.9252 30 34.5002 30H28.5002ZM30.0002 22.5H33.0002V21C33.0002 20.575 32.8565 20.2188 32.569 19.9313C32.2815 19.6438 31.9252 19.5 31.5002 19.5C31.0752 19.5 30.719 19.6438 30.4315 19.9313C30.144 20.2188 30.0002 20.575 30.0002 21V22.5ZM6.00024 30C5.17524 30 4.46899 29.7063 3.88149 29.1188C3.29399 28.5313 3.00024 27.825 3.00024 27V9C3.00024 8.175 3.29399 7.46875 3.88149 6.88125C4.46899 6.29375 5.17524 6 6.00024 6H30.0002C30.8252 6 31.5315 6.29375 32.119 6.88125C32.7065 7.46875 33.0002 8.175 33.0002 9V15H31.5002C29.4252 15 27.6565 15.7313 26.194 17.1938C24.7315 18.6562 24.0002 20.425 24.0002 22.5V30H6.00024Z" fill="#253DAB"/>
</g>
</svg>
