<svg width="72" height="85" viewBox="0 0 72 85" fill="none" xmlns="http://www.w3.org/2000/svg">
<path d="M25.5826 3.47101C25.2212 2.8686 24.5701 2.5 23.8676 2.5H4.53238C2.97779 2.5 2.01756 4.19594 2.81739 5.52899L24.4174 41.529C24.7788 42.1314 25.4298 42.5 26.1324 42.5H45.4676C47.0222 42.5 47.9824 40.8041 47.1826 39.471L25.5826 3.47101Z" fill="#253DAB"/>
<path fill-rule="evenodd" clip-rule="evenodd" d="M23.8676 0.5H4.53237C1.42319 0.5 -0.497261 3.89189 1.1024 6.55798L22.7024 42.558C23.4253 43.7628 24.7273 44.5 26.1324 44.5H45.4676C48.5768 44.5 50.4972 41.1081 48.8976 38.442L27.2976 2.44202C26.5747 1.2372 25.2727 0.5 23.8676 0.5ZM23.8676 2.5C24.5701 2.5 25.2211 2.8686 25.5826 3.47101L47.1826 39.471C47.9824 40.8041 47.0222 42.5 45.4676 42.5H26.1324C25.4298 42.5 24.7788 42.1314 24.4174 41.529L2.81738 5.52899C2.01756 4.19594 2.97778 2.5 4.53237 2.5H23.8676Z" fill="#253258"/>
<path d="M46.4174 3.47101C46.7788 2.8686 47.4298 2.5 48.1324 2.5H67.4676C69.0222 2.5 69.9824 4.19594 69.1826 5.52899L47.5826 41.529C47.2211 42.1314 46.5701 42.5 45.8676 42.5H26.5324C24.9778 42.5 24.0176 40.8041 24.8174 39.471L46.4174 3.47101Z" fill="#253DAB"/>
<path fill-rule="evenodd" clip-rule="evenodd" d="M48.1324 0.5H67.4676C70.5768 0.5 72.4972 3.89189 70.8976 6.55798L49.2976 42.558C48.5747 43.7628 47.2727 44.5 45.8676 44.5H26.5324C23.4232 44.5 21.5027 41.1081 23.1024 38.442L44.7024 2.44202C45.4253 1.2372 46.7273 0.5 48.1324 0.5ZM48.1324 2.5C47.4299 2.5 46.7788 2.8686 46.4174 3.47101L24.8174 39.471C24.0176 40.8041 24.9778 42.5 26.5324 42.5H45.8676C46.5701 42.5 47.2212 42.1314 47.5826 41.529L69.1826 5.52899C69.9824 4.19594 69.0222 2.5 67.4676 2.5H48.1324Z" fill="#253258"/>
<path fill-rule="evenodd" clip-rule="evenodd" d="M48.5021 3.63538C48.9797 3.9127 49.1421 4.52469 48.8648 5.0023L39.8648 20.5023C39.5875 20.9799 38.9755 21.1423 38.4979 20.865C38.0203 20.5876 37.8579 19.9756 38.1352 19.498L47.1352 3.99803C47.4125 3.52042 48.0245 3.35805 48.5021 3.63538Z" fill="#253258"/>
<path fill-rule="evenodd" clip-rule="evenodd" d="M4.49787 3.63538C4.02026 3.9127 3.85789 4.52469 4.13521 5.0023L13.1352 20.5023C13.4125 20.9799 14.0245 21.1423 14.5021 20.865C14.9797 20.5876 15.1421 19.9756 14.8648 19.498L5.86479 3.99803C5.58747 3.52042 4.97548 3.35805 4.49787 3.63538Z" fill="#253258"/>
<path d="M23.5 5.78125C23.5 6.48886 22.9404 7.0625 22.25 7.0625C21.5596 7.0625 21 6.48886 21 5.78125C21 5.07364 21.5596 4.5 22.25 4.5C22.9404 4.5 23.5 5.07364 23.5 5.78125Z" fill="#3654DF"/>
<path d="M19.1098 6.09375C19.1098 6.97395 18.4136 7.6875 17.5549 7.6875C16.6961 7.6875 16 6.97395 16 6.09375C16 5.21355 16.6961 4.5 17.5549 4.5C18.4136 4.5 19.1098 5.21355 19.1098 6.09375Z" fill="#3654DF"/>
<path d="M23 10.6562C23 11.5365 22.3039 12.25 21.4451 12.25C20.5864 12.25 19.8903 11.5365 19.8903 10.6562C19.8903 9.77605 20.5864 9.0625 21.4451 9.0625C22.3039 9.0625 23 9.77605 23 10.6562Z" fill="#3654DF"/>
<path d="M26.5549 8.48438C26.5549 8.92448 26.2068 9.28125 25.7774 9.28125C25.3481 9.28125 25 8.92448 25 8.48438C25 8.04427 25.3481 7.6875 25.7774 7.6875C26.2068 7.6875 26.5549 8.04427 26.5549 8.48438Z" fill="#3654DF"/>
<path d="M18.3323 9.85938C18.3323 10.2995 17.9842 10.6562 17.5549 10.6562C17.1255 10.6562 16.7774 10.2995 16.7774 9.85938C16.7774 9.41927 17.1255 9.0625 17.5549 9.0625C17.9842 9.0625 18.3323 9.41927 18.3323 9.85938Z" fill="#3654DF"/>
<path d="M14 4.98438C14 5.42448 13.6519 5.78125 13.2226 5.78125C12.7932 5.78125 12.4451 5.42448 12.4451 4.98438C12.4451 4.54427 12.7932 4.1875 13.2226 4.1875C13.6519 4.1875 14 4.54427 14 4.98438Z" fill="#3654DF"/>
<path d="M25.7774 14.0469C25.7774 14.487 25.4294 14.8438 25 14.8438C24.5706 14.8438 24.2226 14.487 24.2226 14.0469C24.2226 13.6068 24.5706 13.25 25 13.25C25.4294 13.25 25.7774 13.6068 25.7774 14.0469Z" fill="#3654DF"/>
<path d="M21.7774 14.8438C21.7774 15.2839 21.4294 15.6406 21 15.6406C20.5706 15.6406 20.2226 15.2839 20.2226 14.8438C20.2226 14.4036 20.5706 14.0469 21 14.0469C21.4294 14.0469 21.7774 14.4036 21.7774 14.8438Z" fill="#3654DF"/>
<path d="M29.5305 11.9531C29.5305 12.6694 28.964 13.25 28.2652 13.25C27.5665 13.25 27 12.6694 27 11.9531C27 11.2369 27.5665 10.6562 28.2652 10.6562C28.964 10.6562 29.5305 11.2369 29.5305 11.9531Z" fill="#3654DF"/>
<path d="M31.1799 15.6406C31.1799 16.0807 30.8318 16.4375 30.4024 16.4375C29.9731 16.4375 29.625 16.0807 29.625 15.6406C29.625 15.2005 29.9731 14.8438 30.4024 14.8438C30.8318 14.8438 31.1799 15.2005 31.1799 15.6406Z" fill="#3654DF"/>
<path d="M63 55.5C63 70.4117 50.9117 82.5 36 82.5C21.0883 82.5 9 70.4117 9 55.5C9 40.5883 21.0883 28.5 36 28.5C50.9117 28.5 63 40.5883 63 55.5Z" fill="#FFBB0D"/>
<path fill-rule="evenodd" clip-rule="evenodd" d="M65 55.5C65 71.5163 52.0163 84.5 36 84.5C19.9837 84.5 7 71.5163 7 55.5C7 39.4837 19.9837 26.5 36 26.5C52.0163 26.5 65 39.4837 65 55.5ZM36 82.5C50.9117 82.5 63 70.4117 63 55.5C63 40.5883 50.9117 28.5 36 28.5C21.0883 28.5 9 40.5883 9 55.5C9 70.4117 21.0883 82.5 36 82.5Z" fill="#F7A80F"/>
<path fill-rule="evenodd" clip-rule="evenodd" d="M11 56.5C10.4477 56.5 10 56.0523 10 55.5C10 41.1406 21.6406 29.5 36 29.5C36.5523 29.5 37 29.9477 37 30.5C37 31.0523 36.5523 31.5 36 31.5C22.7452 31.5 12 42.2452 12 55.5C12 56.0523 11.5523 56.5 11 56.5Z" fill="#E8AA0A"/>
<path fill-rule="evenodd" clip-rule="evenodd" d="M61 54.5C61.5523 54.5 62 54.9477 62 55.5C62 69.8594 50.3594 81.5 36 81.5C35.4477 81.5 35 81.0523 35 80.5C35 79.9477 35.4477 79.5 36 79.5C49.2548 79.5 60 68.7548 60 55.5C60 54.9477 60.4477 54.5 61 54.5Z" fill="#E8AA0A"/>
<path d="M56 55.5C56 66.5457 47.0457 75.5 36 75.5C24.9543 75.5 16 66.5457 16 55.5C16 44.4543 24.9543 35.5 36 35.5C47.0457 35.5 56 44.4543 56 55.5Z" fill="#FFDD28"/>
<path fill-rule="evenodd" clip-rule="evenodd" d="M58 55.5C58 67.6503 48.1503 77.5 36 77.5C23.8497 77.5 14 67.6503 14 55.5C14 43.3497 23.8497 33.5 36 33.5C48.1503 33.5 58 43.3497 58 55.5ZM36 75.5C47.0457 75.5 56 66.5457 56 55.5C56 44.4543 47.0457 35.5 36 35.5C24.9543 35.5 16 44.4543 16 55.5C16 66.5457 24.9543 75.5 36 75.5Z" fill="#E89B05"/>
<path fill-rule="evenodd" clip-rule="evenodd" d="M36 72.5C45.3888 72.5 53 64.8888 53 55.5C53 54.9477 53.4477 54.5 54 54.5C54.5523 54.5 55 54.9477 55 55.5C55 65.9934 46.4934 74.5 36 74.5C35.4477 74.5 35 74.0523 35 73.5C35 72.9477 35.4477 72.5 36 72.5Z" fill="#ECC704"/>
<path fill-rule="evenodd" clip-rule="evenodd" d="M36 38.5C26.6112 38.5 19 46.1112 19 55.5C19 56.0523 18.5523 56.5 18 56.5C17.4477 56.5 17 56.0523 17 55.5C17 45.0066 25.5066 36.5 36 36.5C36.5523 36.5 37 36.9477 37 37.5C37 38.0523 36.5523 38.5 36 38.5Z" fill="#FFEF9C"/>
<path d="M25 52.9L31.875 51.5L33.9375 48L36 44.5L40.125 51.5L47 52.9L41.5 58.5L42.875 65.5L36 62L29.125 65.5L30.5 58.5L25 52.9Z" fill="#FFEF9C"/>
<path fill-rule="evenodd" clip-rule="evenodd" d="M31.875 51.5L36 44.5L40.125 51.5L47 52.9L41.5 58.5L42.875 65.5L36 62L29.125 65.5L30.5 58.5L25 52.9L31.875 51.5ZM28.3343 59.1491L23.5732 54.3014C23.0595 53.7784 22.8731 53.0162 23.0875 52.3152C23.3018 51.6141 23.8826 51.0865 24.601 50.9402L30.6038 49.7178L34.277 43.4846C34.6365 42.8745 35.2919 42.5 36 42.5C36.7082 42.5 37.3636 42.8745 37.7231 43.4846L41.3963 49.7178L47.3991 50.9402C48.1175 51.0865 48.6982 51.6141 48.9126 52.3152C49.127 53.0162 48.9406 53.7784 48.4269 54.3014L43.6658 59.1491L44.8375 65.1145C44.985 65.8654 44.6911 66.6346 44.0805 67.0959C43.4699 67.5571 42.6496 67.6295 41.9677 67.2823L36 64.2443L30.0324 67.2823C29.3505 67.6295 28.5302 67.5571 27.9196 67.0959C27.309 66.6346 27.0151 65.8654 27.1626 65.1145L28.3343 59.1491Z" fill="#E89B05"/>
</svg>
