<svg width="32" height="32" viewBox="0 0 32 32" fill="none" xmlns="http://www.w3.org/2000/svg">
<mask id="mask0_1_1404" style="mask-type:alpha" maskUnits="userSpaceOnUse" x="0" y="0" width="32" height="32">
<rect width="32" height="32" fill="#D9D9D9"/>
</mask>
<g mask="url(#mask0_1_1404)">
<path d="M5.74368 28.6667C5.07012 28.6667 4.50001 28.4333 4.03334 27.9667C3.56668 27.5 3.33334 26.9299 3.33334 26.2563V11.077C3.33334 10.4034 3.56668 9.83333 4.03334 9.36667C4.50001 8.9 5.07012 8.66667 5.74368 8.66667H11.3333V6.41033C11.3333 5.73678 11.5667 5.16667 12.0333 4.7C12.5 4.23333 13.0701 4 13.7437 4H18.2563C18.9299 4 19.5 4.23333 19.9667 4.7C20.4333 5.16667 20.6667 5.73678 20.6667 6.41033V8.66667H26.2563C26.9299 8.66667 27.5 8.9 27.9667 9.36667C28.4333 9.83333 28.6667 10.4034 28.6667 11.077V26.2563C28.6667 26.9299 28.4333 27.5 27.9667 27.9667C27.5 28.4333 26.9299 28.6667 26.2563 28.6667H5.74368ZM5.74368 26.6667H26.2563C26.359 26.6667 26.453 26.6239 26.5383 26.5383C26.6239 26.453 26.6667 26.359 26.6667 26.2563V11.077C26.6667 10.9743 26.6239 10.8803 26.5383 10.795C26.453 10.7094 26.359 10.6667 26.2563 10.6667H5.74368C5.64101 10.6667 5.54701 10.7094 5.46168 10.795C5.37612 10.8803 5.33334 10.9743 5.33334 11.077V26.2563C5.33334 26.359 5.37612 26.453 5.46168 26.5383C5.54701 26.6239 5.64101 26.6667 5.74368 26.6667ZM13.3333 8.66667H18.6667V6.41033C18.6667 6.30767 18.6239 6.21367 18.5383 6.12833C18.453 6.04278 18.359 6 18.2563 6H13.7437C13.641 6 13.547 6.04278 13.4617 6.12833C13.3761 6.21367 13.3333 6.30767 13.3333 6.41033V8.66667ZM15 19.6667V23.6667H17V19.6667H21V17.6667H17V13.6667H15V17.6667H11V19.6667H15Z" fill="#0099FF"/>
</g>
</svg>
