<svg width="48" height="48" viewBox="0 0 48 48" fill="none" xmlns="http://www.w3.org/2000/svg">
<path d="M8.99686 10.0001C6.39006 9.95624 5.13936 10.4699 4.44588 12.2852C4.02482 13.3873 4 14.5935 4 15.7735V36C4.21566 37.2696 4.57584 38.1118 5.48464 38.8002C6.96604 39.9222 8.93432 40.0756 10.7626 40.4066C14.7714 41.1326 18.2584 42.3622 23.9874 44M23.9874 44C29.293 42.3588 33.087 41.2202 36.6426 40.5644C39.4864 40.0398 43.1036 39.6862 43.7438 36.8646C43.9118 36.1238 43.9888 35.1946 43.9748 34V18.5325C43.9748 15.5242 44.4296 11.4904 41.6854 10.2617C40.9996 9.95466 40.1316 9.9015 38.978 10.0001M23.9874 44V30" stroke="#0099FF" stroke-width="3" stroke-linecap="round" stroke-linejoin="round"/>
<path d="M23.9858 24C29.5052 24 33.9796 19.5228 33.9796 14C33.9796 8.47716 29.5052 4 23.9858 4M23.9858 24C18.4665 24 13.9922 19.5228 13.9922 14C13.9922 8.47716 18.4665 4 23.9858 4M23.9858 24C26.1938 24 27.9834 19.5228 27.9834 14C27.9834 8.47716 26.1938 4 23.9858 4M23.9858 24C21.778 24 19.9884 19.5228 19.9884 14C19.9884 8.47716 21.778 4 23.9858 4" stroke="#0099FF" stroke-width="3" stroke-linecap="round" stroke-linejoin="round"/>
</svg>
