<svg width="22" height="22" viewBox="0 0 22 22" fill="none" xmlns="http://www.w3.org/2000/svg">
<path d="M2.52811 10.6926C1.58009 9.03955 1.12234 7.68972 0.846325 6.32146C0.438111 4.29782 1.3723 2.32105 2.91987 1.05972C3.57394 0.526627 4.32372 0.708762 4.71049 1.40264L5.58367 2.96915C6.27578 4.21081 6.62183 4.83164 6.55319 5.48984C6.48455 6.14803 6.01786 6.68411 5.08446 7.75625L2.52811 10.6926ZM2.52811 10.6926C4.44699 14.0385 7.45833 17.0515 10.8081 18.9726M10.8081 18.9726C12.4612 19.9206 13.811 20.3784 15.1793 20.6544C17.2029 21.0626 19.1797 20.1284 20.441 18.5809C20.9741 17.9268 20.792 17.177 20.0981 16.7902L18.5316 15.9171C17.2899 15.225 16.6691 14.8789 16.0109 14.9475C15.3527 15.0162 14.8166 15.4829 13.7445 16.4163L10.8081 18.9726Z" stroke="#F5F5F5" stroke-width="1.5" stroke-linejoin="round"/>
<path d="M12.7505 5.5821C14.1737 6.18648 15.3143 7.32701 15.9187 8.75024M13.4045 0.750244C16.9417 1.771 19.7296 4.55877 20.7505 8.09587" stroke="#F5F5F5" stroke-width="1.5" stroke-linecap="round"/>
</svg>
