<svg width="48" height="48" viewBox="0 0 48 48" fill="none" xmlns="http://www.w3.org/2000/svg">
<path d="M16.0005 14.0002H32.0005" stroke="#0099FF" stroke-width="3" stroke-linecap="round" stroke-linejoin="round"/>
<path d="M16.0005 21.9998H24.0005" stroke="#0099FF" stroke-width="3" stroke-linecap="round" stroke-linejoin="round"/>
<path d="M25.9995 42.9998V41.9998C25.9995 36.343 25.9995 33.5146 27.7569 31.7572C29.5143 29.9998 32.3427 29.9998 37.9995 29.9998H38.9995M39.9995 26.686V19.9998C39.9995 12.4573 39.9995 8.68606 37.6563 6.3429C35.3133 3.99976 31.5419 3.99976 23.9995 3.99976C16.4571 3.99976 12.6858 3.99976 10.3427 6.3429C7.99951 8.68604 7.99951 12.4573 7.99951 19.9998V29.0882C7.99951 35.5782 7.99951 38.8232 9.77165 41.0212C10.1297 41.4652 10.5341 41.8696 10.9782 42.2276C13.1761 43.9998 16.4212 43.9998 22.9111 43.9998C24.3223 43.9998 25.0277 43.9998 25.6739 43.7718C25.8083 43.7244 25.9399 43.6698 26.0685 43.6084C26.6867 43.3126 27.1855 42.8138 28.1833 41.816L37.6563 32.343C38.8125 31.1868 39.3905 30.6088 39.6951 29.8736C39.9995 29.1386 39.9995 28.321 39.9995 26.686Z" stroke="#0099FF" stroke-width="3" stroke-linecap="round" stroke-linejoin="round"/>
</svg>
