<svg width="96" height="97" viewBox="0 0 96 97" fill="none" xmlns="http://www.w3.org/2000/svg">
<path d="M81.0002 35.5C81.0002 53.1731 66.6733 67.5 49.0002 67.5C31.3271 67.5 17.0002 53.1731 17.0002 35.5C17.0002 17.8269 31.3271 3.5 49.0002 3.5C66.6733 3.5 81.0002 17.8269 81.0002 35.5Z" fill="#FFBB0D"/>
<path fill-rule="evenodd" clip-rule="evenodd" d="M83.3706 35.4998C83.3706 54.482 67.9825 69.8701 49.0002 69.8701C30.018 69.8701 14.6299 54.482 14.6299 35.4998C14.6299 16.5175 30.018 1.12939 49.0002 1.12939C67.9825 1.12939 83.3706 16.5175 83.3706 35.4998ZM49.0002 67.4998C66.6733 67.4998 81.0002 53.1729 81.0002 35.4998C81.0002 17.8267 66.6733 3.49976 49.0002 3.49976C31.3271 3.49976 17.0002 17.8267 17.0002 35.4998C17.0002 53.1729 31.3271 67.4998 49.0002 67.4998Z" fill="#E89B05"/>
<path fill-rule="evenodd" clip-rule="evenodd" d="M19.3706 36.6851C18.716 36.6851 18.1854 36.1544 18.1854 35.4999C18.1854 18.4813 31.9817 4.68506 49.0002 4.68506C49.6548 4.68506 50.1854 5.21568 50.1854 5.87024C50.1854 6.5248 49.6548 7.05543 49.0002 7.05543C33.2908 7.05543 20.5558 19.7904 20.5558 35.4999C20.5558 36.1544 20.0251 36.6851 19.3706 36.6851Z" fill="#E8AA0A"/>
<path fill-rule="evenodd" clip-rule="evenodd" d="M78.6298 34.3149C79.2844 34.3149 79.815 34.8456 79.815 35.5001C79.815 52.5187 66.0188 66.3149 49.0002 66.3149C48.3457 66.3149 47.815 65.7843 47.815 65.1298C47.815 64.4752 48.3457 63.9446 49.0002 63.9446C64.7097 63.9446 77.4447 51.2096 77.4447 35.5001C77.4447 34.8456 77.9753 34.3149 78.6298 34.3149Z" fill="#E8AA0A"/>
<path d="M72.7039 35.5001C72.7039 48.5913 62.0914 59.2038 49.0002 59.2038C35.909 59.2038 25.2965 48.5913 25.2965 35.5001C25.2965 22.4089 35.909 11.7964 49.0002 11.7964C62.0914 11.7964 72.7039 22.4089 72.7039 35.5001Z" fill="#FFDD28"/>
<path fill-rule="evenodd" clip-rule="evenodd" d="M75.0743 35.4999C75.0743 49.9002 63.4005 61.5739 49.0002 61.5739C34.5999 61.5739 22.9261 49.9002 22.9261 35.4999C22.9261 21.0995 34.5999 9.42578 49.0002 9.42578C63.4005 9.42578 75.0743 21.0995 75.0743 35.4999ZM49.0002 59.2036C62.0914 59.2036 72.7039 48.591 72.7039 35.4999C72.7039 22.4087 62.0914 11.7962 49.0002 11.7962C35.909 11.7962 25.2965 22.4087 25.2965 35.4999C25.2965 48.591 35.909 59.2036 49.0002 59.2036Z" fill="#E89B05"/>
<path fill-rule="evenodd" clip-rule="evenodd" d="M49.0002 55.6482C60.1277 55.6482 69.1484 46.6276 69.1484 35.5C69.1484 34.8455 69.679 34.3149 70.3336 34.3149C70.9881 34.3149 71.5187 34.8455 71.5187 35.5C71.5187 47.9367 61.4369 58.0186 49.0002 58.0186C48.3457 58.0186 47.815 57.4879 47.815 56.8334C47.815 56.1788 48.3457 55.6482 49.0002 55.6482Z" fill="#ECC704"/>
<path fill-rule="evenodd" clip-rule="evenodd" d="M49.0002 15.3518C37.8727 15.3518 28.8521 24.3724 28.8521 35.5C28.8521 36.1545 28.3214 36.6851 27.6669 36.6851C27.0123 36.6851 26.4817 36.1545 26.4817 35.5C26.4817 23.0633 36.5636 12.9814 49.0002 12.9814C49.6548 12.9814 50.1854 13.5121 50.1854 14.1666C50.1854 14.8212 49.6548 15.3518 49.0002 15.3518Z" fill="#FFEF9C"/>
<path d="M60.8461 26.5L43.0771 44.269L35.0002 36.1922" stroke="#E89B05" stroke-width="2.7692" stroke-linecap="round" stroke-linejoin="round"/>
<path d="M11.7766 76.0528L8.72384 69.9472C8.39139 69.2823 8.87488 68.5 9.61826 68.5L23.0002 68.5C23.5525 68.5 24.0002 68.9477 24.0002 69.5L24.0002 83.5C24.0002 84.0523 23.5525 84.5 23.0002 84.5L9.61826 84.5C8.87488 84.5 8.39139 83.7177 8.72384 83.0528L11.7766 76.9472C11.9174 76.6657 11.9174 76.3343 11.7766 76.0528Z" fill="#253DAB"/>
<path d="M84.2238 76.0528L87.2766 69.9472C87.6091 69.2823 87.1256 68.5 86.3822 68.5L73.0002 68.5C72.4479 68.5 72.0002 68.9477 72.0002 69.5L72.0002 83.5C72.0002 84.0523 72.4479 84.5 73.0002 84.5L86.3822 84.5C87.1256 84.5 87.6091 83.7177 87.2766 83.0528L84.2238 76.9472C84.0831 76.6657 84.0831 76.3343 84.2238 76.0528Z" fill="#253DAB"/>
<path fill-rule="evenodd" clip-rule="evenodd" d="M9.76414 76.5L6.93497 70.8416C5.93762 68.847 7.38808 66.5 9.61825 66.5L23.0002 66.5C24.6571 66.5 26.0002 67.8431 26.0002 69.5L26.0002 83.5C26.0002 85.1569 24.6571 86.5 23.0002 86.5L9.61825 86.5C7.38808 86.5 5.93762 84.153 6.93497 82.1584L9.76414 76.5ZM9.98717 76.9461C9.98737 76.9465 9.98756 76.9468 9.98776 76.9472L10.8822 76.5L9.98775 76.9472L9.98717 76.9461ZM86.2363 76.5L89.0655 70.8416C90.0628 68.8469 88.6123 66.5 86.3822 66.5L73.0002 66.5C71.3434 66.5 70.0002 67.8431 70.0002 69.5L70.0002 83.5C70.0002 85.1569 71.3434 86.5 73.0002 86.5L86.3822 86.5C88.6123 86.5 90.0628 84.1531 89.0655 82.1584L86.2363 76.5ZM87.2766 69.9472L84.2238 76.0528C84.0831 76.3343 84.0831 76.6657 84.2238 76.9472L87.2766 83.0528C87.6091 83.7177 87.1256 84.5 86.3822 84.5L73.0002 84.5C72.4479 84.5 72.0002 84.0523 72.0002 83.5L72.0002 69.5C72.0002 68.9477 72.4479 68.5 73.0002 68.5L86.3822 68.5C87.1256 68.5 87.6091 69.2823 87.2766 69.9472ZM8.72382 69.9472L11.7766 76.0528C11.9174 76.3343 11.9174 76.6657 11.7766 76.9472L8.72382 83.0528C8.39137 83.7177 8.87486 84.5 9.61825 84.5L23.0002 84.5C23.5525 84.5 24.0002 84.0523 24.0002 83.5L24.0002 69.5C24.0002 68.9477 23.5525 68.5 23.0002 68.5L9.61825 68.5C8.87486 68.5 8.39137 69.2823 8.72382 69.9472Z" fill="#253258"/>
<path fill-rule="evenodd" clip-rule="evenodd" d="M10.1542 69.4043C10.3373 69.1138 10.6568 68.9375 11.0002 68.9375H15.2502C15.8025 68.9375 16.2502 69.3852 16.2502 69.9375C16.2502 70.4898 15.8025 70.9375 15.2502 70.9375H12.587L14.6523 75.256C14.8906 75.7543 14.6799 76.3513 14.1817 76.5896C13.6834 76.8279 13.0864 76.6172 12.8481 76.119L10.0981 70.369C9.94989 70.0591 9.97109 69.6949 10.1542 69.4043Z" fill="#253258"/>
<path d="M76.0002 79.5L76.0002 65.5C76.0002 64.9477 75.5525 64.5 75.0002 64.5L21.0002 64.5C20.4479 64.5 20.0002 64.9477 20.0002 65.5L20.0002 79.5C20.0002 80.0523 20.4479 80.5 21.0002 80.5L75.0002 80.5C75.5525 80.5 76.0002 80.0523 76.0002 79.5Z" fill="#253DAB"/>
<path fill-rule="evenodd" clip-rule="evenodd" d="M78.0002 65.5L78.0002 79.5C78.0002 81.1569 76.6571 82.5 75.0002 82.5L21.0002 82.5C19.3434 82.5 18.0002 81.1569 18.0002 79.5L18.0002 65.5C18.0002 63.8431 19.3434 62.5 21.0002 62.5L75.0002 62.5C76.6571 62.5 78.0002 63.8431 78.0002 65.5ZM76.0002 65.5L76.0002 79.5C76.0002 80.0523 75.5525 80.5 75.0002 80.5L21.0002 80.5C20.4479 80.5 20.0002 80.0523 20.0002 79.5L20.0002 65.5C20.0002 64.9477 20.4479 64.5 21.0002 64.5L75.0002 64.5C75.5525 64.5 76.0002 64.9477 76.0002 65.5Z" fill="#253258"/>
<path fill-rule="evenodd" clip-rule="evenodd" d="M20.6252 65.9375C20.6252 65.3852 21.0729 64.9375 21.6252 64.9375H59.1252C59.6775 64.9375 60.1252 65.3852 60.1252 65.9375C60.1252 66.4898 59.6775 66.9375 59.1252 66.9375H22.6252V73.9375C22.6252 74.4898 22.1775 74.9375 21.6252 74.9375C21.0729 74.9375 20.6252 74.4898 20.6252 73.9375V65.9375Z" fill="#253258"/>
<path d="M73.2375 72.8795C72.6713 72.8795 72.2122 72.4317 72.2122 71.8792C72.2122 71.3268 72.6713 70.8789 73.2375 70.8789C73.8038 70.8789 74.2628 71.3268 74.2628 71.8792C74.2628 72.4317 73.8038 72.8795 73.2375 72.8795Z" fill="#3654DF"/>
<path d="M69.3363 72.4798C68.632 72.4798 68.061 71.9227 68.061 71.2355C68.061 70.5483 68.632 69.9912 69.3363 69.9912C70.0407 69.9912 70.6117 70.5483 70.6117 71.2355C70.6117 71.9227 70.0407 72.4798 69.3363 72.4798Z" fill="#3654DF"/>
<path d="M71.0744 75.3244C70.7222 75.3244 70.4367 75.0458 70.4367 74.7022C70.4367 74.3586 70.7222 74.0801 71.0744 74.0801C71.4266 74.0801 71.7121 74.3586 71.7121 74.7022C71.7121 75.0458 71.4266 75.3244 71.0744 75.3244Z" fill="#3654DF"/>
<path d="M69.974 68.7443C69.6218 68.7443 69.3363 68.4657 69.3363 68.1221C69.3363 67.7785 69.6218 67.5 69.974 67.5C70.3262 67.5 70.6117 67.7785 70.6117 68.1221C70.6117 68.4657 70.3262 68.7443 69.974 68.7443Z" fill="#3654DF"/>
<path d="M66.623 74.7023C66.2708 74.7023 65.9853 74.4237 65.9853 74.0801C65.9853 73.7365 66.2708 73.458 66.623 73.458C66.9752 73.458 67.2607 73.7365 67.2607 74.0801C67.2607 74.4237 66.9752 74.7023 66.623 74.7023Z" fill="#3654DF"/>
<path d="M65.9853 71.5011C65.6331 71.5011 65.3476 71.2226 65.3476 70.879C65.3476 70.5354 65.6331 70.2568 65.9853 70.2568C66.3375 70.2568 66.623 70.5354 66.623 70.879C66.623 71.2226 66.3375 71.5011 65.9853 71.5011Z" fill="#3654DF"/>
<path d="M61.6379 78.7179C61.2857 78.7179 61.0002 78.4394 61.0002 78.0958C61.0002 77.7522 61.2857 77.4736 61.6379 77.4736C61.9901 77.4736 62.2756 77.7522 62.2756 78.0958C62.2756 78.4394 61.9901 78.7179 61.6379 78.7179Z" fill="#3654DF"/>
<path d="M74.3254 76.3429C73.9732 76.3429 73.6877 76.0644 73.6877 75.7208C73.6877 75.3772 73.9732 75.0986 74.3254 75.0986C74.6776 75.0986 74.9631 75.3772 74.9631 75.7208C74.9631 76.0644 74.6776 76.3429 74.3254 76.3429Z" fill="#3654DF"/>
<path d="M68.2985 77.7057C67.7254 77.7057 67.2607 77.2524 67.2607 76.6932C67.2607 76.134 67.7254 75.6807 68.2985 75.6807C68.8717 75.6807 69.3363 76.134 69.3363 76.6932C69.3363 77.2524 68.8717 77.7057 68.2985 77.7057Z" fill="#3654DF"/>
<path d="M72.7499 78.7179C72.1767 78.7179 71.7121 78.2646 71.7121 77.7054C71.7121 77.1462 72.1767 76.6929 72.7499 76.6929C73.323 76.6929 73.7877 77.1462 73.7877 77.7054C73.7877 78.2646 73.323 78.7179 72.7499 78.7179Z" fill="#3654DF"/>
<path d="M63.6721 76.7271C63.099 76.7271 62.6343 76.2738 62.6343 75.7146C62.6343 75.1555 63.099 74.7021 63.6721 74.7021C64.2453 74.7021 64.71 75.1555 64.71 75.7146C64.71 76.2738 64.2453 76.7271 63.6721 76.7271Z" fill="#3654DF"/>
<path d="M65.3477 79.0255C64.9955 79.0255 64.71 78.747 64.71 78.4034C64.71 78.0598 64.9955 77.7812 65.3477 77.7812C65.6998 77.7812 65.9854 78.0598 65.9854 78.4034C65.9854 78.747 65.6998 79.0255 65.3477 79.0255Z" fill="#3654DF"/>
</svg>
