<svg width="40" height="42" viewBox="0 0 40 42" fill="none" xmlns="http://www.w3.org/2000/svg">
<path d="M10.75 32.75C12.5837 30.7959 15.196 29.773 17.8131 29.7504M21.75 20.75C21.75 22.9591 19.9874 24.75 17.8131 24.75C15.6388 24.75 13.8761 22.9591 13.8761 20.75C13.8761 18.5409 15.6388 16.75 17.8131 16.75C19.9874 16.75 21.75 18.5409 21.75 20.75Z" stroke="url(#paint0_linear_51_1499)" stroke-width="1.5" stroke-linecap="round"/>
<path d="M12.75 4.75232C7.46121 4.77203 4.63201 4.95696 2.80025 6.69231C0.75 8.63466 0.75 11.7608 0.75 18.0131V27.4868C0.75 33.7391 0.75 36.8653 2.80025 38.8076C4.8505 40.75 8.15034 40.75 14.75 40.75H18.75M22.75 4.75232C28.0388 4.77203 30.868 4.95696 32.6997 6.69231C34.75 8.63466 34.75 11.7608 34.75 18.0131V19.75" stroke="url(#paint1_linear_51_1499)" stroke-width="1.5" stroke-linecap="round" stroke-linejoin="round"/>
<path d="M13.2943 4.01327C13.4862 3.18365 13.5822 2.76883 13.7664 2.43008C14.1957 1.64091 14.9876 1.06096 15.9329 0.843393C16.3387 0.75 16.8091 0.75 17.75 0.75C18.6909 0.75 19.1613 0.75 19.5671 0.843393C20.5124 1.06096 21.3043 1.64091 21.7336 2.43008C21.9178 2.76883 22.0138 3.18365 22.2057 4.01327L22.3723 4.73351C22.7126 6.20488 22.8828 6.94056 22.6261 7.50647C22.4598 7.87301 22.1765 8.18685 21.812 8.40822C21.2492 8.75 20.4149 8.75 18.7462 8.75H16.7538C15.0851 8.75 14.2508 8.75 13.688 8.40822C13.3235 8.18685 13.0402 7.87301 12.8739 7.50647C12.6172 6.94056 12.7874 6.20488 13.1277 4.73351L13.2943 4.01327Z" stroke="url(#paint2_linear_51_1499)" stroke-width="1.5"/>
<path d="M28.4063 32.962C28.0324 32.7836 27.5848 32.9421 27.4064 33.316C27.2281 33.6898 27.3866 34.1375 27.7604 34.3158L28.0833 33.6389L28.4063 32.962ZM29.8611 35.4167L29.2149 35.7974C29.3556 36.0361 29.6164 36.1779 29.8933 36.166C30.1701 36.1541 30.4178 35.9905 30.5375 35.7406L29.8611 35.4167ZM33.7722 31.6326C34.1369 31.4363 34.2734 30.9814 34.0771 30.6167C33.8807 30.252 33.4259 30.1155 33.0612 30.3118L33.4167 30.9722L33.7722 31.6326ZM38.75 32.75H38C38 36.7541 34.7541 40 30.75 40V40.75V41.5C35.5825 41.5 39.5 37.5825 39.5 32.75H38.75ZM30.75 40.75V40C26.7459 40 23.5 36.7541 23.5 32.75H22.75H22C22 37.5825 25.9175 41.5 30.75 41.5V40.75ZM22.75 32.75H23.5C23.5 28.7459 26.7459 25.5 30.75 25.5V24.75V24C25.9175 24 22 27.9175 22 32.75H22.75ZM30.75 24.75V25.5C34.7541 25.5 38 28.7459 38 32.75H38.75H39.5C39.5 27.9175 35.5825 24 30.75 24V24.75ZM28.0833 33.6389C27.7604 34.3158 27.7602 34.3157 27.7599 34.3156C27.7598 34.3155 27.7596 34.3154 27.7595 34.3154C27.7592 34.3152 27.7589 34.3151 27.7586 34.3149C27.7581 34.3147 27.7576 34.3145 27.7572 34.3143C27.7563 34.3139 27.7557 34.3136 27.7554 34.3134C27.7546 34.313 27.7548 34.3131 27.7559 34.3136C27.758 34.3147 27.7637 34.3176 27.7726 34.3224C27.7904 34.332 27.821 34.3491 27.8622 34.3743C27.9446 34.4248 28.0681 34.5072 28.2145 34.6257C28.5074 34.8629 28.8875 35.2416 29.2149 35.7974L29.8611 35.4167L30.5073 35.0359C30.0728 34.2985 29.564 33.7884 29.1585 33.46C28.9557 33.2957 28.7776 33.1761 28.6458 33.0953C28.5798 33.0549 28.5251 33.024 28.4844 33.0021C28.464 32.9911 28.4471 32.9823 28.434 32.9757C28.4274 32.9723 28.4218 32.9695 28.4172 32.9673C28.4149 32.9661 28.4128 32.9651 28.411 32.9642C28.4101 32.9638 28.4092 32.9634 28.4084 32.963C28.408 32.9628 28.4077 32.9626 28.4073 32.9625C28.4071 32.9624 28.4069 32.9623 28.4068 32.9622C28.4065 32.9621 28.4063 32.962 28.0833 33.6389ZM29.8611 35.4167C30.5375 35.7406 30.5375 35.7407 30.5374 35.7408C30.5374 35.7408 30.5374 35.7409 30.5374 35.7409C30.5374 35.741 30.5374 35.741 30.5374 35.7409C30.5374 35.7408 30.5376 35.7405 30.5378 35.74C30.5383 35.739 30.5392 35.7371 30.5405 35.7345C30.543 35.7293 30.5471 35.7209 30.5527 35.7096C30.5638 35.687 30.5809 35.6527 30.6036 35.6079C30.6491 35.5184 30.717 35.3877 30.8048 35.2269C30.9806 34.9044 31.2339 34.4649 31.5437 33.996C32.1857 33.0242 32.9881 32.0547 33.7722 31.6326L33.4167 30.9722L33.0612 30.3118C31.9226 30.9247 30.9473 32.1774 30.2921 33.1692C29.9534 33.682 29.6783 34.1595 29.4878 34.5087C29.3924 34.6837 29.3177 34.8274 29.2664 34.9284C29.2407 34.9789 29.2209 35.0188 29.2072 35.0466C29.2003 35.0605 29.195 35.0715 29.1912 35.0792C29.1893 35.0831 29.1878 35.0861 29.1868 35.0884C29.1862 35.0895 29.1858 35.0905 29.1854 35.0912C29.1853 35.0915 29.1851 35.0918 29.185 35.0921C29.1849 35.0922 29.1848 35.0924 29.1848 35.0924C29.1848 35.0926 29.1847 35.0927 29.8611 35.4167Z" fill="url(#paint3_linear_51_1499)"/>
<defs>
<linearGradient id="paint0_linear_51_1499" x1="10.75" y1="32.75" x2="25.689" y2="22.4794" gradientUnits="userSpaceOnUse">
<stop stop-color="white"/>
<stop offset="1" stop-color="#064199"/>
</linearGradient>
<linearGradient id="paint1_linear_51_1499" x1="0.75" y1="40.75" x2="36.6891" y2="6.80531" gradientUnits="userSpaceOnUse">
<stop stop-color="white"/>
<stop offset="1" stop-color="#064199"/>
</linearGradient>
<linearGradient id="paint2_linear_51_1499" x1="12.75" y1="8.75" x2="20.5549" y2="-1.0061" gradientUnits="userSpaceOnUse">
<stop stop-color="white"/>
<stop offset="1" stop-color="#064199"/>
</linearGradient>
<linearGradient id="paint3_linear_51_1499" x1="22.75" y1="40.75" x2="38.75" y2="24.75" gradientUnits="userSpaceOnUse">
<stop stop-color="white"/>
<stop offset="1" stop-color="#064199"/>
</linearGradient>
</defs>
</svg>
