<svg width="32" height="32" viewBox="0 0 32 32" fill="none" xmlns="http://www.w3.org/2000/svg">
<mask id="mask0_1_1450" style="mask-type:alpha" maskUnits="userSpaceOnUse" x="0" y="0" width="32" height="32">
<rect width="32" height="32" fill="#D9D9D9"/>
</mask>
<g mask="url(#mask0_1_1450)">
<path d="M16 12.859L14.6077 11.4667L17.054 9H11V7H17.054L14.5873 4.53333L16 3.141L20.859 8L16 12.859ZM9.53833 28.7437C8.89056 28.7437 8.33978 28.5167 7.886 28.0627C7.43222 27.6089 7.20533 27.0581 7.20533 26.4103C7.20533 25.7623 7.43222 25.2114 7.886 24.7577C8.33978 24.3039 8.89056 24.077 9.53833 24.077C10.1863 24.077 10.7372 24.3039 11.191 24.7577C11.6448 25.2114 11.8717 25.7623 11.8717 26.4103C11.8717 27.0581 11.6448 27.6089 11.191 28.0627C10.7372 28.5167 10.1863 28.7437 9.53833 28.7437ZM22.4617 28.7437C21.8137 28.7437 21.2628 28.5167 20.809 28.0627C20.3552 27.6089 20.1283 27.0581 20.1283 26.4103C20.1283 25.7623 20.3552 25.2114 20.809 24.7577C21.2628 24.3039 21.8137 24.077 22.4617 24.077C23.1094 24.077 23.6602 24.3039 24.114 24.7577C24.5678 25.2114 24.7947 25.7623 24.7947 26.4103C24.7947 27.0581 24.5678 27.6089 24.114 28.0627C23.6602 28.5167 23.1094 28.7437 22.4617 28.7437ZM2 5V3H5.81533L11.3793 14.7437H20.4693C20.5462 14.7437 20.6146 14.7244 20.6743 14.686C20.7341 14.6476 20.7854 14.5941 20.8283 14.5257L25.759 5.66667H28.0357L22.5793 15.523C22.3607 15.9077 22.0714 16.2072 21.7117 16.4217C21.3517 16.6363 20.9572 16.7437 20.5283 16.7437H10.8L9.25633 19.564C9.18789 19.6667 9.18578 19.7778 9.25 19.8973C9.314 20.0171 9.41011 20.077 9.53833 20.077H24.7947V22.077H9.53833C8.64944 22.077 7.97811 21.697 7.52433 20.937C7.07056 20.1772 7.05822 19.4084 7.48733 18.6307L9.38967 15.2103L4.53867 5H2Z" fill="#0099FF"/>
</g>
</svg>
