<svg width="37" height="37" viewBox="0 0 37 37" fill="none" xmlns="http://www.w3.org/2000/svg">
<g id="database">
<mask id="mask0_1_1658" style="mask-type:alpha" maskUnits="userSpaceOnUse" x="0" y="0" width="37" height="37">
<rect id="Bounding box" x="0.143311" y="0.37793" width="36" height="36" fill="#D9D9D9"/>
</mask>
<g mask="url(#mask0_1_1658)">
<path id="database_2" d="M15.6969 16.8779C19.286 16.8779 22.3368 16.2904 24.8491 15.1154C27.3615 13.9404 28.6177 12.5279 28.6177 10.8779C28.6177 9.22793 27.3615 7.81543 24.8491 6.64043C22.3368 5.46543 19.286 4.87793 15.6969 4.87793C12.1078 4.87793 9.05706 5.46543 6.54469 6.64043C4.03231 7.81543 2.77612 9.22793 2.77612 10.8779C2.77612 12.5279 4.03231 13.9404 6.54469 15.1154C9.05706 16.2904 12.1078 16.8779 15.6969 16.8779ZM15.6969 20.6279C16.6779 20.6279 17.9042 20.5217 19.3758 20.3092C20.8473 20.0967 22.265 19.7529 23.6288 19.2779C24.9927 18.8029 26.1651 18.1842 27.1462 17.4217C28.1272 16.6592 28.6177 15.7279 28.6177 14.6279V18.3779C28.6177 19.4779 28.1272 20.4092 27.1462 21.1717C26.1651 21.9342 24.9927 22.5529 23.6288 23.0279C22.265 23.5029 20.8473 23.8467 19.3758 24.0592C17.9042 24.2717 16.6779 24.3779 15.6969 24.3779C14.7159 24.3779 13.4896 24.2717 12.0181 24.0592C10.5465 23.8467 9.12885 23.5029 7.76498 23.0279C6.40112 22.5529 5.22868 21.9342 4.24766 21.1717C3.26663 20.4092 2.77612 19.4779 2.77612 18.3779V14.6279C2.77612 15.7279 3.26663 16.6592 4.24766 17.4217C5.22868 18.1842 6.40112 18.8029 7.76498 19.2779C9.12885 19.7529 10.5465 20.0967 12.0181 20.3092C13.4896 20.5217 14.7159 20.6279 15.6969 20.6279ZM15.6969 28.1279C16.6779 28.1279 17.9042 28.0217 19.3758 27.8092C20.8473 27.5967 22.265 27.2529 23.6288 26.7779C24.9927 26.3029 26.1651 25.6842 27.1462 24.9217C28.1272 24.1592 28.6177 23.2279 28.6177 22.1279V25.8779C28.6177 26.9779 28.1272 27.9092 27.1462 28.6717C26.1651 29.4342 24.9927 30.0529 23.6288 30.5279C22.265 31.0029 20.8473 31.3467 19.3758 31.5592C17.9042 31.7717 16.6779 31.8779 15.6969 31.8779C14.7159 31.8779 13.4896 31.7717 12.0181 31.5592C10.5465 31.3467 9.12885 31.0029 7.76498 30.5279C6.40112 30.0529 5.22868 29.4342 4.24766 28.6717C3.26663 27.9092 2.77612 26.9779 2.77612 25.8779V22.1279C2.77612 23.2279 3.26663 24.1592 4.24766 24.9217C5.22868 25.6842 6.40112 26.3029 7.76498 26.7779C9.12885 27.2529 10.5465 27.5967 12.0181 27.8092C13.4896 28.0217 14.7159 28.1279 15.6969 28.1279Z" fill="#0099FF"/>
</g>
</g>
</svg>
