<svg width="30" height="29" viewBox="0 0 30 29" fill="none" xmlns="http://www.w3.org/2000/svg">
<path d="M7.5 28.5C5.425 28.5 3.65625 27.7688 2.19375 26.3063C0.73125 24.8438 0 23.075 0 21C0 19.175 0.56875 17.5812 1.70625 16.2188C2.84375 14.8563 4.275 14 6 13.65V16.7625C5.125 17.0625 4.40625 17.6 3.84375 18.375C3.28125 19.15 3 20.025 3 21C3 22.25 3.4375 23.3125 4.3125 24.1875C5.1875 25.0625 6.25 25.5 7.5 25.5C8.75 25.5 9.8125 25.0625 10.6875 24.1875C11.5625 23.3125 12 22.25 12 21V19.5H20.8125C21.0125 19.275 21.2563 19.0937 21.5438 18.9562C21.8313 18.8187 22.15 18.75 22.5 18.75C23.125 18.75 23.6562 18.9687 24.0938 19.4062C24.5313 19.8438 24.75 20.375 24.75 21C24.75 21.625 24.5313 22.1562 24.0938 22.5938C23.6562 23.0313 23.125 23.25 22.5 23.25C22.15 23.25 21.8313 23.1813 21.5438 23.0438C21.2563 22.9063 21.0125 22.725 20.8125 22.5H14.85C14.5 24.225 13.6437 25.6563 12.2812 26.7938C10.9188 27.9313 9.325 28.5 7.5 28.5ZM22.5 28.5C21.1 28.5 19.8313 28.1562 18.6938 27.4688C17.5563 26.7812 16.6625 25.875 16.0125 24.75H20.025C20.375 25 20.7625 25.1875 21.1875 25.3125C21.6125 25.4375 22.05 25.5 22.5 25.5C23.75 25.5 24.8125 25.0625 25.6875 24.1875C26.5625 23.3125 27 22.25 27 21C27 19.75 26.5625 18.6875 25.6875 17.8125C24.8125 16.9375 23.75 16.5 22.5 16.5C22 16.5 21.5375 16.5687 21.1125 16.7062C20.6875 16.8437 20.2875 17.05 19.9125 17.325L15.3375 9.7125C14.8125 9.6125 14.375 9.3625 14.025 8.9625C13.675 8.5625 13.5 8.075 13.5 7.5C13.5 6.875 13.7187 6.34375 14.1562 5.90625C14.5938 5.46875 15.125 5.25 15.75 5.25C16.375 5.25 16.9062 5.46875 17.3438 5.90625C17.7813 6.34375 18 6.875 18 7.5V7.81875C18 7.90625 17.975 8.0125 17.925 8.1375L21.1875 13.6125C21.3875 13.5625 21.6 13.5312 21.825 13.5187C22.05 13.5062 22.275 13.5 22.5 13.5C24.575 13.5 26.3438 14.2313 27.8063 15.6938C29.2688 17.1563 30 18.925 30 21C30 23.075 29.2688 24.8438 27.8063 26.3063C26.3438 27.7688 24.575 28.5 22.5 28.5ZM7.5 23.25C6.875 23.25 6.34375 23.0313 5.90625 22.5938C5.46875 22.1562 5.25 21.625 5.25 21C5.25 20.45 5.425 19.975 5.775 19.575C6.125 19.175 6.55 18.9125 7.05 18.7875L10.575 12.9375C9.85 12.2625 9.28125 11.4563 8.86875 10.5188C8.45625 9.58125 8.25 8.575 8.25 7.5C8.25 5.425 8.98125 3.65625 10.4438 2.19375C11.9063 0.73125 13.675 0 15.75 0C17.825 0 19.5938 0.73125 21.0563 2.19375C22.5188 3.65625 23.25 5.425 23.25 7.5H20.25C20.25 6.25 19.8125 5.1875 18.9375 4.3125C18.0625 3.4375 17 3 15.75 3C14.5 3 13.4375 3.4375 12.5625 4.3125C11.6875 5.1875 11.25 6.25 11.25 7.5C11.25 8.575 11.575 9.51875 12.225 10.3313C12.875 11.1438 13.7 11.6625 14.7 11.8875L9.6375 20.325C9.6875 20.45 9.71875 20.5625 9.73125 20.6625C9.74375 20.7625 9.75 20.875 9.75 21C9.75 21.625 9.53125 22.1562 9.09375 22.5938C8.65625 23.0313 8.125 23.25 7.5 23.25Z" fill="#0099FF"/>
</svg>
