<svg width="72" height="72" viewBox="0 0 72 72" fill="none" xmlns="http://www.w3.org/2000/svg">
<g id="Group 38592">
<rect id="Rectangle 4695" width="72" height="72" rx="6" fill="#ECF6FE"/>
<g id="webhook">
<mask id="mask0_1_292" style="mask-type:alpha" maskUnits="userSpaceOnUse" x="18" y="18" width="36" height="36">
<rect id="Bounding box" x="18" y="18" width="36" height="36" fill="#D9D9D9"/>
</mask>
<g mask="url(#mask0_1_292)">
<path id="webhook_2" d="M28.5 49.5C26.425 49.5 24.6562 48.7688 23.1937 47.3063C21.7312 45.8438 21 44.075 21 42C21 40.175 21.5688 38.5812 22.7063 37.2188C23.8438 35.8562 25.275 35 27 34.65V37.7625C26.125 38.0625 25.4062 38.6 24.8438 39.375C24.2812 40.15 24 41.025 24 42C24 43.25 24.4375 44.3125 25.3125 45.1875C26.1875 46.0625 27.25 46.5 28.5 46.5C29.75 46.5 30.8125 46.0625 31.6875 45.1875C32.5625 44.3125 33 43.25 33 42V40.5H41.8125C42.0125 40.275 42.2563 40.0938 42.5438 39.9562C42.8313 39.8188 43.15 39.75 43.5 39.75C44.125 39.75 44.6562 39.9688 45.0938 40.4062C45.5312 40.8438 45.75 41.375 45.75 42C45.75 42.625 45.5312 43.1562 45.0938 43.5938C44.6562 44.0312 44.125 44.25 43.5 44.25C43.15 44.25 42.8313 44.1812 42.5438 44.0438C42.2563 43.9062 42.0125 43.725 41.8125 43.5H35.85C35.5 45.225 34.6438 46.6563 33.2812 47.7938C31.9187 48.9313 30.325 49.5 28.5 49.5ZM43.5 49.5C42.1 49.5 40.8313 49.1562 39.6938 48.4688C38.5563 47.7812 37.6625 46.875 37.0125 45.75H41.025C41.375 46 41.7625 46.1875 42.1875 46.3125C42.6125 46.4375 43.05 46.5 43.5 46.5C44.75 46.5 45.8125 46.0625 46.6875 45.1875C47.5625 44.3125 48 43.25 48 42C48 40.75 47.5625 39.6875 46.6875 38.8125C45.8125 37.9375 44.75 37.5 43.5 37.5C43 37.5 42.5375 37.5688 42.1125 37.7062C41.6875 37.8438 41.2875 38.05 40.9125 38.325L36.3375 30.7125C35.8125 30.6125 35.375 30.3625 35.025 29.9625C34.675 29.5625 34.5 29.075 34.5 28.5C34.5 27.875 34.7188 27.3438 35.1562 26.9062C35.5938 26.4688 36.125 26.25 36.75 26.25C37.375 26.25 37.9062 26.4688 38.3438 26.9062C38.7812 27.3438 39 27.875 39 28.5V28.8188C39 28.9062 38.975 29.0125 38.925 29.1375L42.1875 34.6125C42.3875 34.5625 42.6 34.5312 42.825 34.5187C43.05 34.5062 43.275 34.5 43.5 34.5C45.575 34.5 47.3438 35.2313 48.8063 36.6938C50.2688 38.1562 51 39.925 51 42C51 44.075 50.2688 45.8438 48.8063 47.3063C47.3438 48.7688 45.575 49.5 43.5 49.5ZM28.5 44.25C27.875 44.25 27.3438 44.0312 26.9062 43.5938C26.4688 43.1562 26.25 42.625 26.25 42C26.25 41.45 26.425 40.975 26.775 40.575C27.125 40.175 27.55 39.9125 28.05 39.7875L31.575 33.9375C30.85 33.2625 30.2812 32.4563 29.8687 31.5188C29.4563 30.5813 29.25 29.575 29.25 28.5C29.25 26.425 29.9812 24.6562 31.4438 23.1937C32.9062 21.7312 34.675 21 36.75 21C38.825 21 40.5938 21.7312 42.0563 23.1937C43.5188 24.6562 44.25 26.425 44.25 28.5H41.25C41.25 27.25 40.8125 26.1875 39.9375 25.3125C39.0625 24.4375 38 24 36.75 24C35.5 24 34.4375 24.4375 33.5625 25.3125C32.6875 26.1875 32.25 27.25 32.25 28.5C32.25 29.575 32.575 30.5188 33.225 31.3313C33.875 32.1438 34.7 32.6625 35.7 32.8875L30.6375 41.325C30.6875 41.45 30.7188 41.5625 30.7313 41.6625C30.7438 41.7625 30.75 41.875 30.75 42C30.75 42.625 30.5312 43.1562 30.0938 43.5938C29.6562 44.0312 29.125 44.25 28.5 44.25Z" fill="#0099FF"/>
</g>
</g>
</g>
</svg>
