<svg width="134" height="180" viewBox="0 0 134 180" fill="none" xmlns="http://www.w3.org/2000/svg">
<path d="M126.822 -1.97508L145.74 36.1734C148.32 41.4839 155.199 46.5775 161.003 47.5529L195.292 53.2969C217.22 56.9817 222.379 73.0214 206.578 88.8443L179.921 115.722C175.407 120.273 172.934 129.052 174.332 135.338L181.963 168.609C187.983 194.945 174.117 205.132 151.007 191.368L118.868 172.186C113.064 168.718 103.497 168.718 97.5853 172.186L65.4464 191.368C42.4439 205.132 28.4705 194.836 34.4898 168.609L42.1215 135.338C43.5188 129.052 41.0466 120.273 36.5321 115.722L9.87502 88.8443C-5.81825 73.0214 -0.766304 56.9817 21.1613 53.2969L55.45 47.5529C61.1469 46.5775 68.0261 41.4839 70.6058 36.1734L89.5237 -1.97508C99.8426 -22.675 116.611 -22.675 126.822 -1.97508Z" stroke="#9BC3FF" stroke-width="1.5" stroke-linecap="round" stroke-linejoin="round"/>
</svg>
