<svg width="32" height="32" viewBox="0 0 32 32" fill="none" xmlns="http://www.w3.org/2000/svg">
<mask id="mask0_1_1438" style="mask-type:alpha" maskUnits="userSpaceOnUse" x="0" y="0" width="32" height="32">
<rect width="32" height="32" fill="#D9D9D9"/>
</mask>
<g mask="url(#mask0_1_1438)">
<path d="M27.6858 14.6307V25.2564C27.6858 25.9299 27.4524 26.5 26.9858 26.9667C26.5191 27.4334 25.9491 27.6667 25.2758 27.6667H6.76275C6.08942 27.6667 5.51942 27.4334 5.05275 26.9667C4.58609 26.5 4.35275 25.9299 4.35275 25.2564V14.605C3.81587 14.1642 3.41287 13.5919 3.14375 12.8884C2.87442 12.185 2.86887 11.4257 3.12709 10.6104L4.47575 6.20504C4.65353 5.64437 4.9552 5.19226 5.38075 4.84871C5.80653 4.50515 6.31509 4.33337 6.90642 4.33337H25.1064C25.698 4.33337 26.2031 4.49749 26.6218 4.82571C27.0406 5.15393 27.3458 5.60526 27.5371 6.17971L28.9114 10.6104C29.1696 11.4257 29.1641 12.1825 28.8948 12.8807C28.6256 13.5792 28.2226 14.1625 27.6858 14.6307ZM18.9528 13.6667C19.681 13.6667 20.2284 13.444 20.5951 12.9987C20.9618 12.5534 21.1118 12.0752 21.0451 11.564L20.2348 6.33337H17.0191V11.6C17.0191 12.1607 17.2089 12.6454 17.5884 13.054C17.968 13.4625 18.4228 13.6667 18.9528 13.6667ZM12.9528 13.6667C13.5663 13.6667 14.0641 13.4625 14.4461 13.054C14.8283 12.6454 15.0194 12.1607 15.0194 11.6V6.33337H11.8038L10.9938 11.6154C10.9218 12.0889 11.0704 12.5493 11.4398 12.9964C11.8091 13.4433 12.3134 13.6667 12.9528 13.6667ZM7.01942 13.6667C7.51342 13.6667 7.9382 13.4945 8.29376 13.15C8.64931 12.8056 8.86898 12.3727 8.95275 11.8514L9.73709 6.33337H6.90642C6.76109 6.33337 6.64576 6.36537 6.56042 6.42937C6.47487 6.4936 6.41075 6.58982 6.36809 6.71804L5.08575 11.0564C4.90975 11.629 4.99275 12.2073 5.33475 12.791C5.67653 13.3748 6.23809 13.6667 7.01942 13.6667ZM25.0194 13.6667C25.7408 13.6667 26.2929 13.3834 26.6758 12.8167C27.0586 12.25 27.151 11.6633 26.9528 11.0564L25.6038 6.69237C25.5611 6.56415 25.4971 6.47226 25.4118 6.41671C25.3262 6.36115 25.2108 6.33337 25.0654 6.33337H22.3014L23.0858 11.8514C23.1695 12.3727 23.3892 12.8056 23.7448 13.15C24.1003 13.4945 24.5252 13.6667 25.0194 13.6667ZM6.76275 25.6667H25.2758C25.3953 25.6667 25.4935 25.6283 25.5704 25.5514C25.6475 25.4745 25.6861 25.3762 25.6861 25.2564V15.5487C25.5408 15.6018 25.4193 15.6347 25.3218 15.6474C25.2244 15.6603 25.1236 15.6667 25.0194 15.6667C24.4194 15.6667 23.8916 15.5582 23.4361 15.341C22.9805 15.1239 22.539 14.776 22.1114 14.2974C21.7372 14.7145 21.2945 15.047 20.7834 15.295C20.2723 15.5428 19.6894 15.6667 19.0348 15.6667C18.469 15.6667 17.9356 15.5492 17.4348 15.314C16.9339 15.0792 16.4621 14.7403 16.0194 14.2974C15.6074 14.7403 15.1408 15.0792 14.6194 15.314C14.0979 15.5492 13.5696 15.6667 13.0348 15.6667C12.433 15.6667 11.8689 15.5577 11.3424 15.3397C10.816 15.1217 10.3528 14.7743 9.95275 14.2974C9.39187 14.858 8.87509 15.2265 8.40242 15.4027C7.92998 15.5787 7.46898 15.6667 7.01942 15.6667C6.91498 15.6667 6.8072 15.6603 6.69609 15.6474C6.58498 15.6347 6.47042 15.6018 6.35242 15.5487V25.2564C6.35242 25.3762 6.39098 25.4745 6.46809 25.5514C6.54498 25.6283 6.6432 25.6667 6.76275 25.6667Z" fill="#0099FF"/>
</g>
</svg>
