<svg width="36" height="36" viewBox="0 0 36 36" fill="none" xmlns="http://www.w3.org/2000/svg">
<g id="Frame 37955">
<rect width="36" height="36" rx="6" fill="#61BDFB" fill-opacity="0.23"/>
<g id="supervisor_account">
<mask id="mask0_1_2396" style="mask-type:alpha" maskUnits="userSpaceOnUse" x="6" y="6" width="24" height="24">
<rect id="Bounding box" x="6" y="6" width="24" height="24" fill="#D9D9D9"/>
</mask>
<g mask="url(#mask0_1_2396)">
<path id="supervisor_account_2" d="M23 21C22.3 21 21.7083 20.7583 21.225 20.275C20.7417 19.7917 20.5 19.2 20.5 18.5C20.5 17.8 20.7417 17.2083 21.225 16.725C21.7083 16.2417 22.3 16 23 16C23.7 16 24.2917 16.2417 24.775 16.725C25.2583 17.2083 25.5 17.8 25.5 18.5C25.5 19.2 25.2583 19.7917 24.775 20.275C24.2917 20.7583 23.7 21 23 21ZM18 26V24.6C18 24.2 18.1042 23.8292 18.3125 23.4875C18.5208 23.1458 18.8167 22.9 19.2 22.75C19.8 22.5 20.4208 22.3125 21.0625 22.1875C21.7042 22.0625 22.35 22 23 22C23.65 22 24.2958 22.0625 24.9375 22.1875C25.5792 22.3125 26.2 22.5 26.8 22.75C27.1833 22.9 27.4792 23.1458 27.6875 23.4875C27.8958 23.8292 28 24.2 28 24.6V26H18ZM16 18C14.9 18 13.9583 17.6083 13.175 16.825C12.3917 16.0417 12 15.1 12 14C12 12.9 12.3917 11.9583 13.175 11.175C13.9583 10.3917 14.9 10 16 10C17.1 10 18.0417 10.3917 18.825 11.175C19.6083 11.9583 20 12.9 20 14C20 15.1 19.6083 16.0417 18.825 16.825C18.0417 17.6083 17.1 18 16 18ZM8 26V23.2C8 22.6333 8.14167 22.1125 8.425 21.6375C8.70833 21.1625 9.1 20.8 9.6 20.55C10.6 20.05 11.6375 19.6667 12.7125 19.4C13.7875 19.1333 14.8833 19 16 19C16.5833 19 17.1667 19.05 17.75 19.15C18.3333 19.25 18.9167 19.3667 19.5 19.5L17.8 21.2C17.5 21.1167 17.2 21.0625 16.9 21.0375C16.6 21.0125 16.3 21 16 21C15.0333 21 14.0875 21.1167 13.1625 21.35C12.2375 21.5833 11.35 21.9167 10.5 22.35C10.3333 22.4333 10.2083 22.55 10.125 22.7C10.0417 22.85 10 23.0167 10 23.2V24H16V26H8ZM16 16C16.55 16 17.0208 15.8042 17.4125 15.4125C17.8042 15.0208 18 14.55 18 14C18 13.45 17.8042 12.9792 17.4125 12.5875C17.0208 12.1958 16.55 12 16 12C15.45 12 14.9792 12.1958 14.5875 12.5875C14.1958 12.9792 14 13.45 14 14C14 14.55 14.1958 15.0208 14.5875 15.4125C14.9792 15.8042 15.45 16 16 16Z" fill="#0099FF"/>
</g>
</g>
</g>
</svg>
