<svg width="24" height="25" viewBox="0 0 24 25" fill="none" xmlns="http://www.w3.org/2000/svg">
<g id="Icon">
<path id="Vector" d="M12 5.25781C11 5.25781 10.0625 5.44531 9.1875 5.82031C8.29688 6.19531 7.52344 6.71094 6.86719 7.36719C6.21094 8.02344 5.69531 8.79688 5.32031 9.6875C4.94531 10.5625 4.75781 11.5 4.75781 12.5C4.75781 13.5 4.94531 14.4375 5.32031 15.3125C5.69531 16.2031 6.21094 16.9766 6.86719 17.6328C7.52344 18.2891 8.29688 18.8047 9.1875 19.1797C10.0625 19.5547 11 19.7422 12 19.7422C13 19.7422 13.9375 19.5547 14.8125 19.1797C15.7031 18.8047 16.4766 18.2891 17.1328 17.6328C17.7891 16.9766 18.3047 16.2031 18.6797 15.3125C19.0547 14.4375 19.2422 13.5 19.2422 12.5C19.2422 11.5 19.0547 10.5625 18.6797 9.6875C18.3047 8.79688 17.7891 8.02344 17.1328 7.36719C16.4766 6.71094 15.7031 6.19531 14.8125 5.82031C13.9375 5.44531 13 5.25781 12 5.25781ZM3.25781 12.5C3.25781 11.2969 3.48437 10.1641 3.9375 9.10156C4.39062 8.03906 5.01562 7.10938 5.8125 6.3125C6.60938 5.51562 7.53906 4.89062 8.60156 4.4375C9.66406 3.98438 10.7969 3.75781 12 3.75781C13.2031 3.75781 14.3359 3.98438 15.3984 4.4375C16.4609 4.89062 17.3906 5.51562 18.1875 6.3125C18.9844 7.10938 19.6094 8.03906 20.0625 9.10156C20.5156 10.1641 20.7422 11.2969 20.7422 12.5C20.7422 13.7031 20.5156 14.8359 20.0625 15.8984C19.6094 16.9609 18.9844 17.8906 18.1875 18.6875C17.3906 19.4844 16.4609 20.1094 15.3984 20.5625C14.3359 21.0156 13.2031 21.2422 12 21.2422C10.7969 21.2422 9.66406 21.0156 8.60156 20.5625C7.53906 20.1094 6.60938 19.4844 5.8125 18.6875C5.01562 17.8906 4.39062 16.9609 3.9375 15.8984C3.48437 14.8359 3.25781 13.7031 3.25781 12.5ZM15.5391 9.96875C15.6797 10.125 15.75 10.3047 15.75 10.5078C15.75 10.7109 15.6719 10.8906 15.5156 11.0469L11.3906 15.0312C11.25 15.1719 11.0781 15.2422 10.875 15.2422C10.6719 15.2422 10.5 15.1719 10.3594 15.0312L8.48438 13.2266C8.32812 13.0859 8.25 12.9102 8.25 12.6992C8.25 12.4883 8.32031 12.3047 8.46094 12.1484C8.60156 12.0078 8.77734 11.9375 8.98828 11.9375C9.19922 11.9375 9.375 12.0078 9.51562 12.1484L10.875 13.4609L14.4844 9.96875C14.625 9.8125 14.8008 9.73828 15.0117 9.74609C15.2227 9.75391 15.3984 9.82812 15.5391 9.96875Z" fill="#76ABEE"/>
</g>
</svg>
