<svg width="25" height="25" viewBox="0 0 25 25" fill="none" xmlns="http://www.w3.org/2000/svg">
<path d="M9.20938 23.8402L7.30937 20.6502L3.70937 19.8532L4.05938 16.1662L1.60938 13.3752L4.05938 10.5852L3.70937 6.89716L7.30937 6.09916L9.20938 2.91016L12.6094 4.35516L16.0094 2.91016L17.9094 6.10016L21.5094 6.89716L21.1594 10.5842L23.6094 13.3752L21.1594 16.1652L21.5094 19.8532L17.9094 20.6512L16.0094 23.8402L12.6094 22.3952L9.20938 23.8402ZM10.0594 21.2992L12.6094 20.2012L15.2094 21.2972L16.6094 18.9052L19.3594 18.2582L19.1094 15.4672L20.9594 13.3742L19.1094 11.2312L19.3594 8.44116L16.6094 7.84416L15.1594 5.45016L12.6094 6.54916L10.0094 5.45216L8.60938 7.84416L5.85938 8.44216L6.10938 11.2322L4.25938 13.3752L6.10938 15.4682L5.85938 18.3082L8.60938 18.9072L10.0594 21.2992ZM11.5594 16.9132L17.2094 11.2822L15.8094 9.83716L11.5594 14.0732L9.40938 11.9802L8.00938 13.3752L11.5594 16.9132Z" fill="white"/>
</svg>
