<svg width="19" height="15" viewBox="0 0 19 15" fill="none" xmlns="http://www.w3.org/2000/svg">
<g id="Twitter logo" clip-path="url(#clip0_23_420)">
<path id="Vector" d="M18.4998 2.2049C17.8258 2.48937 17.1108 2.6761 16.3788 2.75887C17.1413 2.32346 17.7268 1.63398 18.0025 0.812468C17.2776 1.22228 16.4845 1.51101 15.6575 1.6662C14.9838 0.982477 14.0241 0.555176 12.9619 0.555176C10.9224 0.555176 9.26891 2.13041 9.26891 4.07326C9.26891 4.34904 9.30161 4.61752 9.36454 4.87508C6.29539 4.72831 3.5743 3.32771 1.75286 1.19918C1.43504 1.71878 1.25293 2.32319 1.25293 2.96786C1.25293 4.18848 1.90494 5.26527 2.89579 5.89621C2.30934 5.87871 1.7358 5.72781 1.22305 5.45611C1.22284 5.47085 1.22284 5.48559 1.22284 5.50039C1.22284 7.20497 2.49578 8.62694 4.18511 8.95015C3.6413 9.09105 3.07088 9.11167 2.51743 9.01043C2.98733 10.4082 4.35118 11.4253 5.96711 11.4537C4.70324 12.3973 3.11087 12.9598 1.38076 12.9598C1.08264 12.9598 0.788731 12.9431 0.499817 12.9106C2.13409 13.9088 4.07521 14.4913 6.16068 14.4913C12.9534 14.4913 16.6678 9.13034 16.6678 4.48127C16.6678 4.32868 16.6642 4.17695 16.6571 4.0261C17.38 3.52819 18.0041 2.91147 18.4998 2.2049" fill="#2B2B2B"/>
</g>
<defs>
<clipPath id="clip0_23_420">
<rect width="18" height="14" fill="white" transform="translate(0.499817 0.5)"/>
</clipPath>
</defs>
</svg>
