<svg width="72" height="72" viewBox="0 0 72 72" fill="none" xmlns="http://www.w3.org/2000/svg">
<g id="Group 38588">
<rect id="Rectangle 4695" width="72" height="72" rx="6" fill="#ECF6FE"/>
<g id="stylus_laser_pointer">
<mask id="mask0_1_251" style="mask-type:alpha" maskUnits="userSpaceOnUse" x="18" y="18" width="36" height="36">
<rect id="Bounding box" x="18" y="18" width="36" height="36" fill="#D9D9D9"/>
</mask>
<g mask="url(#mask0_1_251)">
<path id="stylus_laser_pointer_2" d="M31.5 51C30.25 51 29.1875 50.5625 28.3125 49.6875C27.4375 48.8125 27 47.75 27 46.5C27 45.25 27.4375 44.1875 28.3125 43.3125C29.1875 42.4375 30.25 42 31.5 42C32.75 42 33.8125 42.4375 34.6875 43.3125C35.5625 44.1875 36 45.25 36 46.5C36 47.75 35.5625 48.8125 34.6875 49.6875C33.8125 50.5625 32.75 51 31.5 51ZM38.2125 45.7875C38.0625 44.4125 37.55 43.2 36.675 42.15C35.8 41.1 34.7125 40.3875 33.4125 40.0125L37.3875 36H26.85C26.05 36 25.375 35.725 24.825 35.175C24.275 34.625 24 33.95 24 33.15C24 32.65 24.1313 32.1813 24.3938 31.7438C24.6562 31.3063 25 30.95 25.425 30.675L43.65 19.7625C44.1 19.4875 44.575 19.4188 45.075 19.5563C45.575 19.6938 45.9625 19.9875 46.2375 20.4375C46.5125 20.8875 46.5813 21.3563 46.4438 21.8438C46.3063 22.3313 46.025 22.7125 45.6 22.9875L31.5 31.5H45.15C45.95 31.5 46.625 31.775 47.175 32.325C47.725 32.875 48 33.55 48 34.35C48 34.8 47.9438 35.2438 47.8312 35.6813C47.7188 36.1188 47.5 36.5 47.175 36.825L38.2125 45.7875Z" fill="#0099FF"/>
</g>
</g>
</g>
</svg>
