<svg width="36" height="36" viewBox="0 0 36 36" fill="none" xmlns="http://www.w3.org/2000/svg">
<mask id="mask0_49_1150" style="mask-type:alpha" maskUnits="userSpaceOnUse" x="0" y="0" width="36" height="36">
<rect width="36" height="36" fill="#D9D9D9"/>
</mask>
<g mask="url(#mask0_49_1150)">
<path d="M13.5 33C12.25 33 11.1875 32.5625 10.3125 31.6875C9.4375 30.8125 9 29.75 9 28.5C9 27.25 9.4375 26.1875 10.3125 25.3125C11.1875 24.4375 12.25 24 13.5 24C14.75 24 15.8125 24.4375 16.6875 25.3125C17.5625 26.1875 18 27.25 18 28.5C18 29.75 17.5625 30.8125 16.6875 31.6875C15.8125 32.5625 14.75 33 13.5 33ZM20.2125 27.7875C20.0625 26.4125 19.55 25.2 18.675 24.15C17.8 23.1 16.7125 22.3875 15.4125 22.0125L19.3875 18.0001H8.85C8.05 18.0001 7.375 17.725 6.825 17.175C6.275 16.625 6 15.95 6 15.15C6 14.65 6.13125 14.1813 6.39375 13.7438C6.65625 13.3063 7 12.95 7.425 12.675L25.65 1.76255C26.1 1.48755 26.575 1.4188 27.075 1.5563C27.575 1.6938 27.9625 1.98755 28.2375 2.43755C28.5125 2.88755 28.5813 3.3563 28.4438 3.8438C28.3063 4.3313 28.025 4.71255 27.6 4.98755L13.5 13.5001H27.15C27.95 13.5001 28.625 13.775 29.175 14.325C29.725 14.875 30 15.55 30 16.35C30 16.8 29.9437 17.2438 29.8312 17.6813C29.7187 18.1188 29.5 18.5 29.175 18.825L20.2125 27.7875Z" fill="#0099FF"/>
</g>
</svg>
