<svg width="25" height="24" viewBox="0 0 25 24" fill="none" xmlns="http://www.w3.org/2000/svg">
<g id="icon-people">
<path id="Vector" d="M16.5195 10C18.1795 10 19.5095 8.66 19.5095 7C19.5095 5.34 18.1795 4 16.5195 4C14.8595 4 13.5195 5.34 13.5195 7C13.5195 8.66 14.8595 10 16.5195 10ZM8.51953 10C10.1795 10 11.5095 8.66 11.5095 7C11.5095 5.34 10.1795 4 8.51953 4C6.85953 4 5.51953 5.34 5.51953 7C5.51953 8.66 6.85953 10 8.51953 10ZM8.51953 12C6.18953 12 1.51953 13.17 1.51953 15.5V20H15.5195V15.5C15.5195 13.17 10.8495 12 8.51953 12ZM16.5195 12C16.2295 12 15.8995 12.02 15.5495 12.05C16.7095 12.89 17.5195 14.02 17.5195 15.5V20H23.5195V15.5C23.5195 13.17 18.8495 12 16.5195 12Z" fill="#303141"/>
</g>
</svg>
