<svg width="37" height="37" viewBox="0 0 37 37" fill="none" xmlns="http://www.w3.org/2000/svg">
<mask id="mask0_1_4430" style="mask-type:alpha" maskUnits="userSpaceOnUse" x="0" y="0" width="37" height="37">
<rect x="0.109375" y="0.977051" width="36" height="36" fill="#D9D9D9"/>
</mask>
<g mask="url(#mask0_1_4430)">
<path d="M15.8594 23.4771H20.3594L19.4969 18.6396C19.9969 18.3896 20.3906 18.0271 20.6781 17.5521C20.9656 17.0771 21.1094 16.5521 21.1094 15.9771C21.1094 15.1521 20.8156 14.4458 20.2281 13.8583C19.6406 13.2708 18.9344 12.9771 18.1094 12.9771C17.2844 12.9771 16.5781 13.2708 15.9906 13.8583C15.4031 14.4458 15.1094 15.1521 15.1094 15.9771C15.1094 16.5521 15.2531 17.0771 15.5406 17.5521C15.8281 18.0271 16.2219 18.3896 16.7219 18.6396L15.8594 23.4771ZM18.1094 33.9771C14.6344 33.1021 11.7656 31.1083 9.50313 27.9958C7.24063 24.8833 6.10938 21.4271 6.10938 17.6271V8.47705L18.1094 3.97705L30.1094 8.47705V17.6271C30.1094 21.4271 28.9781 24.8833 26.7156 27.9958C24.4531 31.1083 21.5844 33.1021 18.1094 33.9771Z" fill="#253DAB"/>
</g>
</svg>
