<svg width="42" height="44" viewBox="0 0 42 44" fill="none" xmlns="http://www.w3.org/2000/svg">
<path d="M20.9964 2C14.9809 2 11.0804 6.03798 6.46743 7.5098C4.59177 8.10826 3.65394 8.40749 3.2744 8.8293C2.89486 9.25111 2.78372 9.8675 2.56144 11.1003C0.182868 24.292 5.3818 36.4879 17.7806 41.235C19.1128 41.745 19.7789 42 21.003 42C22.2271 42 22.8931 41.745 24.2252 41.2349C36.6232 36.4879 41.8172 24.2919 39.4379 11.1003C39.2156 9.86728 39.1044 9.25079 38.7248 8.82897C38.3451 8.40716 37.4074 8.10809 35.5318 7.50997C30.9171 6.03829 27.0122 2 20.9964 2Z" stroke="#2343B6" stroke-width="3" stroke-linecap="round" stroke-linejoin="round"/>
<path d="M15 24C15 24 17 24 19 28C19 28 25.3529 18 31 16" stroke="#2343B6" stroke-width="3" stroke-linecap="round" stroke-linejoin="round"/>
</svg>
