<svg width="32" height="32" viewBox="0 0 32 32" fill="none" xmlns="http://www.w3.org/2000/svg">
<mask id="mask0_1_1468" style="mask-type:alpha" maskUnits="userSpaceOnUse" x="0" y="0" width="32" height="32">
<rect width="32" height="32" fill="#D9D9D9"/>
</mask>
<g mask="url(#mask0_1_1468)">
<path d="M21.1298 16.923L15.8528 11.818C15.2153 11.2027 14.6789 10.5177 14.2438 9.76304C13.8087 9.00837 13.5911 8.18648 13.5911 7.29737C13.5911 6.19626 13.9766 5.26037 14.7475 4.48971C15.5181 3.71882 16.454 3.33337 17.5551 3.33337C18.2749 3.33337 18.9395 3.50693 19.5488 3.85404C20.1584 4.20093 20.6854 4.64282 21.1298 5.17971C21.5743 4.64282 22.1011 4.20093 22.7105 3.85404C23.3198 3.50693 23.9844 3.33337 24.7041 3.33337C25.8053 3.33337 26.7411 3.71882 27.5118 4.48971C28.2827 5.26037 28.6681 6.19626 28.6681 7.29737C28.6681 8.18648 28.454 9.00837 28.0258 9.76304C27.5976 10.5177 27.0647 11.2027 26.4271 11.818L21.1298 16.923ZM21.1298 14.1387L24.9425 10.4437C25.3903 10.0044 25.7898 9.5266 26.1411 9.01037C26.4925 8.49415 26.6681 7.92315 26.6681 7.29737C26.6681 6.74871 26.4779 6.28426 26.0975 5.90404C25.7173 5.5236 25.2528 5.33337 24.7041 5.33337C24.2819 5.33337 23.8956 5.4436 23.5451 5.66404C23.1947 5.88471 22.8853 6.16426 22.6168 6.50271L21.1298 8.31271L19.6425 6.50271C19.374 6.16426 19.0646 5.88471 18.7141 5.66404C18.3639 5.4436 17.9776 5.33337 17.5551 5.33337C17.0065 5.33337 16.542 5.5236 16.1618 5.90404C15.7814 6.28426 15.5911 6.74871 15.5911 7.29737C15.5911 7.92315 15.7668 8.49415 16.1181 9.01037C16.4695 9.5266 16.869 10.0044 17.3168 10.4437L21.1298 14.1387ZM8.93748 24.7694L18.6141 27.5077L26.5731 25.041C26.5049 24.7386 26.3639 24.5066 26.1501 24.345C25.9364 24.1835 25.6945 24.1027 25.4245 24.1027H18.8948C18.313 24.1027 17.8187 24.0805 17.4118 24.036C17.0049 23.9916 16.5869 23.8941 16.1578 23.7437L13.1478 22.7487L13.7398 20.7897L16.4398 21.7284C16.8434 21.865 17.3093 21.9582 17.8375 22.0077C18.3657 22.0573 19.1169 22.0889 20.0911 22.1027C20.0911 21.7727 20.0168 21.488 19.8681 21.2487C19.7195 21.0094 19.5237 20.8478 19.2808 20.764L11.5451 17.923C11.5194 17.9146 11.4958 17.9083 11.4745 17.904C11.4531 17.8996 11.4297 17.8974 11.4041 17.8974H8.93748V24.7694ZM2.27081 28.6667V15.8977H11.3888C11.5288 15.8977 11.6706 15.913 11.8141 15.9437C11.9579 15.9746 12.0913 16.0105 12.2141 16.0514L19.9835 18.913C20.5886 19.1368 21.0911 19.5329 21.4911 20.1014C21.8911 20.6698 22.0911 21.3369 22.0911 22.1027H25.4245C26.3818 22.1027 27.1617 22.4117 27.7641 23.0297C28.3668 23.6475 28.6681 24.4496 28.6681 25.436V26.5127L18.6808 29.6154L8.93748 26.836V28.6667H2.27081ZM4.27081 26.6667H6.93748V17.8974H4.27081V26.6667Z" fill="#0099FF"/>
</g>
</svg>
