<svg width="30" height="28" viewBox="0 0 30 28" fill="none" xmlns="http://www.w3.org/2000/svg">
<path d="M9 27.5V24.5H3C2.175 24.5 1.46875 24.2063 0.88125 23.6188C0.29375 23.0313 0 22.325 0 21.5V3.5C0 2.675 0.29375 1.96875 0.88125 1.38125C1.46875 0.79375 2.175 0.5 3 0.5H27C27.825 0.5 28.5313 0.79375 29.1188 1.38125C29.7063 1.96875 30 2.675 30 3.5V21.5C30 22.325 29.7063 23.0313 29.1188 23.6188C28.5313 24.2063 27.825 24.5 27 24.5H21V27.5H9ZM4.2 12.5L8.1 8.6L6 6.5L0 12.5L6 18.5L8.1 16.4L4.2 12.5ZM25.8 12.5L21.9 16.4L24 18.5L30 12.5L24 6.5L21.9 8.6L25.8 12.5Z" fill="#0099FF"/>
</svg>
